<svg width="148" height="36" viewBox="0 0 148 36" fill="none" xmlns="http://www.w3.org/2000/svg">
<g clip-path="url(#clip0_51_467)">
<path d="M45.1488 24.706H55.5541V21.545H48.8471V9.63867H45.1488V24.706Z" fill="#181818"/>
<path d="M61.7187 22.5983C60.2353 22.5983 59.4622 21.2917 59.4622 19.3319C59.4622 17.3721 60.2353 16.0445 61.7187 16.0445C63.2022 16.0445 63.9962 17.3721 63.9962 19.3319C63.9962 21.2917 63.2022 22.5983 61.7187 22.5983ZM61.7396 25.0428C65.1872 25.0428 67.4437 22.5772 67.4437 19.3319C67.4437 16.0867 65.1872 13.6211 61.7396 13.6211C58.313 13.6211 56.0146 16.0867 56.0146 19.3319C56.0146 22.5772 58.313 25.0428 61.7396 25.0428Z" fill="#181818"/>
<path d="M73.4113 28.4351C74.9992 28.4351 76.3991 28.0769 77.3393 27.234C78.196 26.4542 78.7601 25.2741 78.7601 23.6515V13.9157H75.5007V15.0747H75.4589C74.832 14.1686 73.8709 13.5996 72.4501 13.5996C69.7966 13.5996 67.9579 15.8334 67.9579 18.9943C67.9579 22.3028 70.1936 24.1151 72.5964 24.1151C73.8918 24.1151 74.7067 23.5883 75.3335 22.8718H75.4171V23.9465C75.4171 25.2531 74.8112 26.0117 73.3695 26.0117C72.2412 26.0117 71.677 25.527 71.489 24.958H68.1877C68.522 27.2129 70.4652 28.4351 73.4113 28.4351ZM73.3904 21.5653C72.1158 21.5653 71.2801 20.5116 71.2801 18.889C71.2801 17.2453 72.1158 16.1916 73.3904 16.1916C74.8112 16.1916 75.5633 17.4139 75.5633 18.8679C75.5633 20.3852 74.8738 21.5653 73.3904 21.5653Z" fill="#181818"/>
<path d="M85.4622 22.5983C83.9787 22.5983 83.2056 21.2917 83.2056 19.3319C83.2056 17.3721 83.9787 16.0445 85.4622 16.0445C86.9456 16.0445 87.7396 17.3721 87.7396 19.3319C87.7396 21.2917 86.9456 22.5983 85.4622 22.5983ZM85.483 25.0428C88.9306 25.0428 91.1871 22.5772 91.1871 19.3319C91.1871 16.0867 88.9306 13.6211 85.483 13.6211C82.0564 13.6211 79.7581 16.0867 79.7581 19.3319C79.7581 22.5772 82.0564 25.0428 85.483 25.0428Z" fill="#181818"/>
<path d="M92.1814 24.706H95.5871V13.9165H92.1814V24.706ZM92.1814 12.4203H95.5871V9.63867H92.1814V12.4203Z" fill="#181818"/>
<path d="M97.0654 28.2665H100.471V23.5883H100.513C101.182 24.4944 102.164 25.0423 103.543 25.0423C106.342 25.0423 108.202 22.8086 108.202 19.3104C108.202 16.0652 106.468 13.5996 103.626 13.5996C102.164 13.5996 101.119 14.2529 100.388 15.2222H100.325V13.9157H97.0654V28.2665ZM102.665 22.3871C101.202 22.3871 100.367 21.186 100.367 19.4369C100.367 17.6878 101.119 16.3602 102.602 16.3602C104.065 16.3602 104.754 17.5824 104.754 19.4369C104.754 21.2702 103.96 22.3871 102.665 22.3871Z" fill="#181818"/>
<path d="M113.747 25.0423C116.547 25.0423 118.615 23.8201 118.615 21.4599C118.615 18.6993 116.4 18.2146 114.52 17.8985C113.162 17.6457 111.95 17.5403 111.95 16.7817C111.95 16.1073 112.598 15.7912 113.433 15.7912C114.374 15.7912 115.021 16.0862 115.147 17.0556H118.281C118.114 14.9272 116.484 13.5996 113.454 13.5996C110.926 13.5996 108.837 14.7797 108.837 17.0556C108.837 19.5844 110.822 20.0901 112.681 20.4062C114.102 20.6591 115.397 20.7645 115.397 21.7339C115.397 22.4293 114.75 22.8086 113.726 22.8086C112.598 22.8086 111.887 22.2818 111.762 21.207H108.544C108.649 23.5883 110.613 25.0423 113.747 25.0423Z" fill="#181818"/>
<path d="M123.241 25.0235C124.725 25.0235 125.665 24.4335 126.438 23.3798H126.501V24.7074H129.76V13.918H126.355V19.9449C126.355 21.2304 125.644 22.1154 124.474 22.1154C123.388 22.1154 122.865 21.4622 122.865 20.2821V13.918H119.48V20.9986C119.48 23.4009 120.776 25.0235 123.241 25.0235Z" fill="#181818"/>
<path d="M131.241 24.7052H134.647V18.6572C134.647 17.3717 135.274 16.4656 136.339 16.4656C137.363 16.4656 137.844 17.1399 137.844 18.2989V24.7052H141.249V18.6572C141.249 17.3717 141.855 16.4656 142.942 16.4656C143.966 16.4656 144.446 17.1399 144.446 18.2989V24.7052H147.852V17.6878C147.852 15.2644 146.64 13.5996 144.216 13.5996C142.837 13.5996 141.688 14.1897 140.852 15.4962H140.811C140.267 14.3372 139.202 13.5996 137.802 13.5996C136.256 13.5996 135.232 14.3372 134.563 15.454H134.501V13.9157H131.241V24.7052Z" fill="#181818"/>
<path fill-rule="evenodd" clip-rule="evenodd" d="M18.0074 35.243C27.6236 35.243 35.4191 27.3807 35.4191 17.682C35.4191 7.98341 27.6236 0.121094 18.0074 0.121094C8.39108 0.121094 0.595581 7.98341 0.595581 17.682C0.595581 27.3807 8.39108 35.243 18.0074 35.243ZM23.4392 8.30173C23.7036 7.3545 22.7922 6.79438 21.9598 7.39248L10.3402 15.7412C9.43746 16.3898 9.57946 17.682 10.5535 17.682H13.6132V17.6582H19.5766L14.7176 19.3873L12.5755 27.0624C12.3111 28.0097 13.2224 28.5698 14.0549 27.9716L25.6745 19.623C26.5773 18.9744 26.4352 17.682 25.4613 17.682H20.8212L23.4392 8.30173Z" fill="#EDC701"/>
</g>
<defs>
<clipPath id="clip0_51_467">
<rect width="148" height="36" fill="white"/>
</clipPath>
</defs>
</svg>
