<svg width="148" height="36" viewBox="0 0 148 36" fill="none" xmlns="http://www.w3.org/2000/svg">
<g clip-path="url(#clip0_51_566)">
<path d="M44.6416 25.747H55.0469V22.586H48.3399V10.6797H44.6416V25.747Z" fill="#181818"/>
<path d="M61.2115 23.6393C59.7281 23.6393 58.955 22.3327 58.955 20.3729C58.955 18.4131 59.7281 17.0855 61.2115 17.0855C62.695 17.0855 63.489 18.4131 63.489 20.3729C63.489 22.3327 62.695 23.6393 61.2115 23.6393ZM61.2324 26.0838C64.68 26.0838 66.9365 23.6182 66.9365 20.3729C66.9365 17.1277 64.68 14.6621 61.2324 14.6621C57.8058 14.6621 55.5074 17.1277 55.5074 20.3729C55.5074 23.6182 57.8058 26.0838 61.2324 26.0838Z" fill="#181818"/>
<path d="M72.9039 29.4781C74.4919 29.4781 75.8918 29.1198 76.832 28.2769C77.6887 27.4972 78.2528 26.3171 78.2528 24.6945V14.9587H74.9933V16.1177H74.9516C74.3247 15.2116 73.3636 14.6426 71.9428 14.6426C69.2892 14.6426 67.4506 16.8763 67.4506 20.0373C67.4506 23.3458 69.6862 25.1581 72.0891 25.1581C73.3845 25.1581 74.1994 24.6313 74.8262 23.9148H74.9098V24.9895C74.9098 26.296 74.3038 27.0547 72.8621 27.0547C71.7339 27.0547 71.1697 26.57 70.9817 26.001H67.6804C68.0147 28.2558 69.9579 29.4781 72.9039 29.4781ZM72.883 22.6082C71.6085 22.6082 70.7727 21.5546 70.7727 19.9319C70.7727 18.2882 71.6085 17.2346 72.883 17.2346C74.3038 17.2346 75.056 18.4568 75.056 19.9109C75.056 21.4281 74.3665 22.6082 72.883 22.6082Z" fill="#181818"/>
<path d="M84.9549 23.6393C83.4715 23.6393 82.6984 22.3327 82.6984 20.3729C82.6984 18.4131 83.4715 17.0855 84.9549 17.0855C86.4384 17.0855 87.2321 18.4131 87.2321 20.3729C87.2321 22.3327 86.4384 23.6393 84.9549 23.6393ZM84.9758 26.0838C88.423 26.0838 90.6796 23.6182 90.6796 20.3729C90.6796 17.1277 88.423 14.6621 84.9758 14.6621C81.5492 14.6621 79.2509 17.1277 79.2509 20.3729C79.2509 23.6182 81.5492 26.0838 84.9758 26.0838Z" fill="#181818"/>
<path d="M91.6747 25.747H95.0804V14.9575H91.6747V25.747ZM91.6747 13.4613H95.0804V10.6797H91.6747V13.4613Z" fill="#181818"/>
<path d="M96.5579 29.3095H99.9636V24.6313H100.005C100.674 25.5374 101.656 26.0853 103.035 26.0853C105.835 26.0853 107.694 23.8516 107.694 20.3534C107.694 17.1081 105.96 14.6426 103.119 14.6426C101.656 14.6426 100.611 15.2958 99.88 16.2652H99.8173V14.9587H96.5579V29.3095ZM102.157 23.4301C100.695 23.4301 99.8591 22.2289 99.8591 20.4798C99.8591 18.7308 100.611 17.4032 102.095 17.4032C103.557 17.4032 104.247 18.6254 104.247 20.4798C104.247 22.3132 103.453 23.4301 102.157 23.4301Z" fill="#181818"/>
<path d="M113.239 26.0853C116.039 26.0853 118.107 24.8631 118.107 22.5029C118.107 19.7423 115.893 19.2576 114.012 18.9415C112.654 18.6886 111.442 18.5833 111.442 17.8246C111.442 17.1503 112.09 16.8342 112.926 16.8342C113.866 16.8342 114.514 17.1292 114.639 18.0986H117.773C117.606 15.9702 115.976 14.6426 112.947 14.6426C110.418 14.6426 108.329 15.8227 108.329 18.0986C108.329 20.6274 110.314 21.1331 112.174 21.4492C113.594 21.7021 114.89 21.8075 114.89 22.7768C114.89 23.4722 114.242 23.8516 113.218 23.8516C112.09 23.8516 111.38 23.3247 111.254 22.25H108.036C108.141 24.6313 110.105 26.0853 113.239 26.0853Z" fill="#181818"/>
<path d="M122.734 26.0645C124.217 26.0645 125.158 25.4745 125.931 24.4208H125.993V25.7484H129.253V14.959H125.847V20.9859C125.847 22.2714 125.137 23.1564 123.967 23.1564C122.88 23.1564 122.358 22.5032 122.358 21.3231V14.959H118.973V22.0396C118.973 24.4419 120.268 26.0645 122.734 26.0645Z" fill="#181818"/>
<path d="M130.734 25.7481H134.14V19.7001C134.14 18.4147 134.767 17.5085 135.833 17.5085C136.856 17.5085 137.337 18.1829 137.337 19.3419V25.7481H140.743V19.7001C140.743 18.4147 141.349 17.5085 142.435 17.5085C143.459 17.5085 143.94 18.1829 143.94 19.3419V25.7481H147.345V18.7308C147.345 16.3074 146.133 14.6426 143.71 14.6426C142.331 14.6426 141.182 15.2326 140.346 16.5392H140.304C139.761 15.3801 138.695 14.6426 137.295 14.6426C135.749 14.6426 134.725 15.3801 134.057 16.497H133.994V14.9587H130.734V25.7481Z" fill="#181818"/>
<path fill-rule="evenodd" clip-rule="evenodd" d="M17.5 35.4051C27.1163 35.4051 34.9117 27.5428 34.9117 17.8441C34.9117 8.14551 27.1163 0.283203 17.5 0.283203C7.88376 0.283203 0.0882568 8.14551 0.0882568 17.8441C0.0882568 27.5428 7.88376 35.4051 17.5 35.4051ZM20.1875 13.8513C21.6717 12.3543 21.6717 9.9273 20.1875 8.43032C18.7032 6.93335 16.2968 6.93335 14.8126 8.43032C13.3284 9.9273 13.3284 12.3543 14.8126 13.8513L17.5 16.5618L20.1875 13.8513ZM21.459 20.5547C22.9433 22.0517 25.3496 22.0517 26.8339 20.5547C28.3181 19.0577 28.3181 16.6307 26.8339 15.1337C25.3496 13.6368 22.9433 13.6368 21.459 15.1337L18.7716 17.8442L21.459 20.5547ZM20.1875 27.2581C21.6717 25.7611 21.6717 23.3341 20.1875 21.8371L17.5 19.1266L14.8126 21.8371C13.3284 23.3341 13.3284 25.7611 14.8126 27.2581C16.2968 28.755 18.7032 28.755 20.1875 27.2581ZM8.16612 20.5547C6.68191 19.0577 6.68191 16.6307 8.16612 15.1337C9.65041 13.6368 12.0568 13.6368 13.5411 15.1337L16.2285 17.8442L13.5411 20.5547C12.0568 22.0517 9.65041 22.0517 8.16612 20.5547Z" fill="#EDC701"/>
</g>
<defs>
<clipPath id="clip0_51_566">
<rect width="148" height="36" fill="white"/>
</clipPath>
</defs>
</svg>
