<svg width="148" height="36" viewBox="0 0 148 36" fill="none" xmlns="http://www.w3.org/2000/svg">
<g clip-path="url(#clip0_51_543)">
<path d="M43.0979 25.2822H53.6901V22.1212H46.8626V10.2148H43.0979V25.2822Z" fill="#181818"/>
<path d="M59.9656 23.1744C58.4555 23.1744 57.6685 21.8679 57.6685 19.9081C57.6685 17.9483 58.4555 16.6207 59.9656 16.6207C61.4758 16.6207 62.284 17.9483 62.284 19.9081C62.284 21.8679 61.4758 23.1744 59.9656 23.1744ZM59.9869 25.6189C63.4963 25.6189 65.7935 23.1534 65.7935 19.9081C65.7935 16.6628 63.4963 14.1973 59.9869 14.1973C56.4987 14.1973 54.1591 16.6628 54.1591 19.9081C54.1591 23.1534 56.4987 25.6189 59.9869 25.6189Z" fill="#181818"/>
<path d="M71.868 29.0113C73.4845 29.0113 74.9095 28.653 75.8666 27.8101C76.7387 27.0304 77.313 25.8503 77.313 24.2277V14.4919H73.9949V15.6509H73.9524C73.3143 14.7448 72.3359 14.1758 70.8896 14.1758C68.1884 14.1758 66.3167 16.4095 66.3167 19.5705C66.3167 22.879 68.5925 24.6913 71.0385 24.6913C72.3572 24.6913 73.1867 24.1645 73.8248 23.448H73.9098V24.5227C73.9098 25.8292 73.293 26.5879 71.8254 26.5879C70.6769 26.5879 70.1026 26.1032 69.9112 25.5342H66.5506C66.8909 27.7891 68.869 29.0113 71.868 29.0113ZM71.8467 22.1414C70.5493 22.1414 69.6985 21.0878 69.6985 19.4651C69.6985 17.8214 70.5493 16.7678 71.8467 16.7678C73.293 16.7678 74.0587 17.99 74.0587 19.4441C74.0587 20.9613 73.3568 22.1414 71.8467 22.1414Z" fill="#181818"/>
<path d="M84.1355 23.1744C82.6254 23.1744 81.8384 21.8679 81.8384 19.9081C81.8384 17.9483 82.6254 16.6207 84.1355 16.6207C85.6457 16.6207 86.4539 17.9483 86.4539 19.9081C86.4539 21.8679 85.6457 23.1744 84.1355 23.1744ZM84.1568 25.6189C87.6663 25.6189 89.9636 23.1534 89.9636 19.9081C89.9636 16.6628 87.6663 14.1973 84.1568 14.1973C80.6686 14.1973 78.329 16.6628 78.329 19.9081C78.329 23.1534 80.6686 25.6189 84.1568 25.6189Z" fill="#181818"/>
<path d="M90.9757 25.2822H94.4426V14.4927H90.9757V25.2822ZM90.9757 12.9965H94.4426V10.2148H90.9757V12.9965Z" fill="#181818"/>
<path d="M95.9465 28.8427H99.4135V24.1645H99.456C100.137 25.0706 101.136 25.6185 102.54 25.6185C105.39 25.6185 107.283 23.3848 107.283 19.8866C107.283 16.6413 105.518 14.1758 102.625 14.1758C101.136 14.1758 100.073 14.8291 99.3284 15.7984H99.2646V14.4919H95.9465V28.8427ZM101.647 22.9633C100.158 22.9633 99.3071 21.7621 99.3071 20.0131C99.3071 18.264 100.073 16.9364 101.583 16.9364C103.072 16.9364 103.774 18.1586 103.774 20.0131C103.774 21.8464 102.965 22.9633 101.647 22.9633Z" fill="#181818"/>
<path d="M112.928 25.6185C115.779 25.6185 117.884 24.3963 117.884 22.0361C117.884 19.2755 115.63 18.7908 113.715 18.4747C112.333 18.2218 111.099 18.1165 111.099 17.3578C111.099 16.6835 111.759 16.3674 112.609 16.3674C113.567 16.3674 114.226 16.6624 114.353 17.6318H117.544C117.374 15.5034 115.715 14.1758 112.631 14.1758C110.057 14.1758 107.93 15.3559 107.93 17.6318C107.93 20.1606 109.951 20.6663 111.844 20.9824C113.29 21.2353 114.609 21.3407 114.609 22.31C114.609 23.0054 113.949 23.3848 112.907 23.3848C111.759 23.3848 111.035 22.8579 110.908 21.7832H107.632C107.739 24.1645 109.738 25.6185 112.928 25.6185Z" fill="#181818"/>
<path d="M122.593 25.5997C124.103 25.5997 125.06 25.0097 125.847 23.956H125.911V25.2836H129.229V14.4941H125.762V20.5211C125.762 21.8065 125.039 22.6916 123.848 22.6916C122.742 22.6916 122.21 22.0383 122.21 20.8582V14.4941H118.764V21.5747C118.764 23.9771 120.083 25.5997 122.593 25.5997Z" fill="#181818"/>
<path d="M130.737 25.2813H134.204V19.2333C134.204 17.9479 134.842 17.0417 135.927 17.0417C136.969 17.0417 137.458 17.7161 137.458 18.8751V25.2813H140.925V19.2333C140.925 17.9479 141.542 17.0417 142.648 17.0417C143.69 17.0417 144.179 17.7161 144.179 18.8751V25.2813H147.646V18.264C147.646 15.8406 146.413 14.1758 143.946 14.1758C142.542 14.1758 141.372 14.7658 140.521 16.0724H140.479C139.926 14.9133 138.841 14.1758 137.416 14.1758C135.842 14.1758 134.8 14.9133 134.119 16.0302H134.055V14.4919H130.737V25.2813Z" fill="#181818"/>
<path fill-rule="evenodd" clip-rule="evenodd" d="M7.66951 3.41691C6.40162 4.29528 5.25511 5.33379 4.25983 6.50284C8.32699 6.12873 13.4942 6.73961 19.4932 9.71148C25.8994 12.8849 31.058 12.9922 34.6481 12.3061C34.3223 11.3289 33.9122 10.3898 33.4264 9.49697C29.3167 9.92642 24.0481 9.35798 17.9079 6.31633C14.0089 4.3848 10.5719 3.58913 7.66951 3.41691ZM31.0257 6.11145C27.7803 2.51878 23.0638 0.257812 17.8144 0.257812C16.2728 0.257812 14.777 0.452833 13.3511 0.819307C15.2823 1.3414 17.3339 2.10521 19.4932 3.17492C23.9887 5.40188 27.8699 6.11892 31.0257 6.11145ZM35.4156 15.7361C31.0784 16.5847 25.0892 16.4104 17.9079 12.8529C11.1942 9.527 5.8507 9.56888 2.24683 10.3624C2.06081 10.4033 1.87917 10.4463 1.70192 10.4911C1.23008 11.5078 0.853448 12.5769 0.583208 13.6871C0.871839 13.6107 1.17009 13.5381 1.47782 13.4703C5.84994 12.5077 12.0274 12.5495 19.4932 16.248C26.207 19.5739 31.5505 19.532 35.1545 18.7385C35.2779 18.7114 35.3996 18.6833 35.5192 18.6543C35.5324 18.3775 35.5389 18.0989 35.5389 17.8188C35.5389 17.1141 35.4971 16.4192 35.4156 15.7361ZM34.9405 22.3603C30.6454 23.1043 24.8306 22.8187 17.9079 19.3894C11.1942 16.0635 5.8507 16.1054 2.24683 16.8989C1.44688 17.075 0.727253 17.2895 0.0924404 17.5159C0.0907096 17.6166 0.0898438 17.7176 0.0898438 17.8188C0.0898438 27.5174 8.02538 35.3797 17.8144 35.3797C26.0183 35.3797 32.9204 29.8576 34.9405 22.3603Z" fill="#EDC701"/>
</g>
<defs>
<clipPath id="clip0_51_543">
<rect width="148" height="36" fill="white"/>
</clipPath>
</defs>
</svg>
