<svg width="142" height="142" viewBox="0 0 142 142" fill="none" xmlns="http://www.w3.org/2000/svg">
<circle cx="71" cy="71" r="68" fill="#EDC701" stroke="#F6F5ED" stroke-width="6"/>
<path d="M80.2571 22.2732C80.0953 23.0718 79.802 23.7544 79.377 24.3209C78.961 24.8885 78.4223 25.3047 77.7608 25.5696C77.1094 25.8266 76.3391 25.9008 75.4499 25.7924C74.4529 25.6708 73.631 25.3478 72.9843 24.8233C72.3476 24.291 71.8952 23.6311 71.6271 22.8437C71.359 22.0563 71.2809 21.2057 71.3929 20.2918C71.4753 19.6199 71.6516 19.0003 71.9216 18.4331C72.2018 17.8581 72.5669 17.3707 73.0171 16.9709C73.4672 16.5712 73.995 16.2809 74.6006 16.1002C75.2163 15.9116 75.9014 15.8633 76.6558 15.9553C77.9223 16.1098 78.8691 16.5662 79.4963 17.3247C80.1335 18.0753 80.4548 19.0238 80.4602 20.1702L78.6413 19.9484C78.6338 19.6383 78.5875 19.3462 78.5026 19.0721C78.4267 18.7992 78.3015 18.5566 78.1269 18.3443C77.9625 18.1242 77.7426 17.9474 77.4672 17.8138C77.202 17.6723 76.8673 17.5769 76.4631 17.5276C75.8074 17.4476 75.2448 17.5381 74.7752 17.7991C74.3146 18.0612 73.9497 18.435 73.6806 18.9205C73.4204 19.407 73.2551 19.937 73.1848 20.5104C73.1134 21.0927 73.1452 21.6513 73.2802 22.1861C73.4242 22.7219 73.6875 23.1769 74.0701 23.5509C74.4628 23.917 74.987 24.1401 75.6427 24.2201C76.0828 24.2737 76.4632 24.2565 76.784 24.1683C77.1058 24.0712 77.3793 23.9227 77.6043 23.7228C77.8294 23.5229 78.0094 23.2812 78.1445 22.9976C78.2885 22.7151 78.3954 22.4008 78.4652 22.0546L80.2571 22.2732Z" fill="#181818"/>
<path d="M85.3496 28.09C84.6189 27.8232 84.0349 27.4321 83.5977 26.9168C83.1721 26.3961 82.9105 25.796 82.8131 25.1164C82.7241 24.4399 82.8134 23.7372 83.0809 23.0083C83.3516 22.271 83.7398 21.6726 84.2456 21.2134C84.7599 20.7572 85.3481 20.4674 86.0102 20.3439C86.6807 20.2235 87.3856 20.2983 88.1248 20.5683C88.8556 20.8351 89.4338 21.2289 89.8594 21.7495C90.285 22.2702 90.5423 22.8688 90.6312 23.5453C90.7287 24.2248 90.6421 24.9333 90.3715 25.6707C90.1039 26.3996 89.713 26.9922 89.1987 27.4483C88.6929 27.9076 88.1089 28.199 87.4469 28.3224C86.788 28.4374 86.0889 28.36 85.3496 28.09ZM85.8897 26.658C86.323 26.8163 86.7242 26.8523 87.0931 26.7659C87.4652 26.6711 87.7915 26.4779 88.072 26.1862C88.3556 25.8861 88.5783 25.5157 88.74 25.0749C88.9049 24.6257 88.9762 24.1952 88.9539 23.7834C88.9316 23.3715 88.8075 23.0138 88.5817 22.7103C88.3589 22.3983 88.0309 22.1631 87.5975 22.0049C87.1557 21.8435 86.7487 21.8103 86.3767 21.9051C86.0077 21.9914 85.6814 22.1846 85.3978 22.4848C85.1142 22.7849 84.89 23.1596 84.7251 23.6088C84.5633 24.0495 84.4936 24.4758 84.5159 24.8876C84.5413 25.291 84.6654 25.6487 84.8881 25.9607C85.114 26.2642 85.4478 26.4967 85.8897 26.658Z" fill="#181818"/>
<path d="M95.0868 23.7369L96.5407 24.6351L95.9046 25.6595C96.1227 25.4969 96.3711 25.3797 96.6499 25.3078C96.9412 25.2329 97.2611 25.2235 97.6095 25.2795C97.9579 25.3355 98.3359 25.4894 98.7436 25.7413C99.159 25.998 99.4759 26.3105 99.6942 26.6789C99.9124 27.0473 99.9924 27.4843 99.934 27.9896C99.8881 28.4921 99.6602 29.0733 99.2505 29.7332L96.7847 33.7041L95.3308 32.8058L97.7036 28.9846C97.8895 28.6853 98.0293 28.4001 98.1232 28.129C98.217 27.8579 98.2237 27.6072 98.1431 27.3769C98.0703 27.1514 97.88 26.9436 97.5723 26.7535C97.303 26.5872 96.99 26.4999 96.6332 26.4918C96.2763 26.4837 95.9132 26.5885 95.5439 26.8062C95.1793 27.0162 94.8374 27.3783 94.5181 27.8924L92.5384 31.0806L91.0845 30.1824L95.0868 23.7369Z" fill="#181818"/>
<path d="M103.107 29.0268L106.134 31.6409L105.184 32.7361L102.156 30.122L103.107 29.0268ZM105.11 28.2495L106.403 29.366L101.624 34.873C101.458 35.064 101.381 35.2487 101.394 35.4269C101.413 35.5984 101.518 35.7668 101.71 35.9322L102.274 36.4196L101.323 37.5148L100.749 37.0186C100.133 36.4869 99.7922 35.9419 99.7263 35.3835C99.6672 34.8311 99.8686 34.2887 100.331 33.7565L105.11 28.2495Z" fill="#181818"/>
<path d="M109.178 39.6439L110.27 40.9393L106.945 43.7273L105.853 42.4319L109.178 39.6439ZM110.859 36.2528C111.541 37.0612 111.817 37.873 111.688 38.6883C111.56 39.5035 111.087 40.2539 110.27 40.9393L109.178 39.6439C109.469 39.3999 109.696 39.1505 109.859 38.8955C110.036 38.6417 110.117 38.3732 110.103 38.0901C110.094 37.814 109.962 37.5239 109.706 37.2199C109.368 36.8192 109.008 36.6024 108.626 36.5694C108.243 36.5364 107.907 36.6418 107.616 36.8858L106.463 35.5179C106.851 35.1926 107.295 34.9907 107.797 34.9123C108.311 34.8349 108.835 34.9026 109.368 35.1152C109.902 35.3279 110.399 35.7071 110.859 36.2528ZM109.586 39.4965L108.865 40.4721C108.182 39.5355 107.565 38.9506 107.014 38.7172C106.469 38.478 106.034 38.4949 105.709 38.7679C105.466 38.9712 105.356 39.2052 105.378 39.4697C105.4 39.7342 105.522 39.9978 105.743 40.2603C105.935 40.4883 106.157 40.6676 106.409 40.7983C106.661 40.9289 106.933 40.978 107.225 40.9455C107.53 40.9142 107.838 40.7678 108.149 40.5064L107.907 41.187C107.502 41.4915 107.086 41.6927 106.66 41.7905C106.24 41.8951 105.83 41.8854 105.43 41.7611C105.037 41.6311 104.674 41.3692 104.342 40.9754C104.022 40.5954 103.806 40.1988 103.694 39.7856C103.589 39.3665 103.599 38.9574 103.723 38.5581C103.848 38.1589 104.104 37.7966 104.492 37.4714C104.866 37.1577 105.235 36.9718 105.6 36.9136C105.97 36.8623 106.336 36.9035 106.697 37.0371C107.058 37.1708 107.407 37.3674 107.744 37.6271C108.081 37.8869 108.402 38.1836 108.707 38.5174C109.019 38.8454 109.312 39.1718 109.586 39.4965Z" fill="#181818"/>
<path d="M114.589 50.3332C114.013 50.6384 113.428 50.7845 112.832 50.7714C112.236 50.7582 111.679 50.5901 111.16 50.267C110.653 49.9474 110.228 49.4752 109.883 48.8504C109.508 48.1702 109.326 47.4926 109.336 46.8176C109.358 46.1462 109.557 45.5224 109.931 44.9463C110.31 44.3781 110.84 43.907 111.522 43.533C112.212 43.1547 112.898 42.9583 113.582 42.9437C114.27 42.9371 114.905 43.1042 115.485 43.4452C116.07 43.794 116.55 44.3085 116.925 44.9887C117.256 45.5898 117.413 46.1937 117.396 46.8002C117.392 47.4104 117.248 47.9634 116.963 48.4592C116.691 48.9586 116.312 49.3471 115.824 49.6246L114.961 48.0586C115.203 47.9159 115.4 47.7304 115.553 47.5023C115.718 47.2777 115.811 47.0156 115.832 46.7158C115.853 46.4161 115.765 46.0883 115.569 45.7324C115.333 45.3053 115.044 45.0055 114.701 44.833C114.358 44.6606 113.983 44.5985 113.576 44.6466C113.181 44.6984 112.778 44.8373 112.365 45.0635C111.961 45.2853 111.631 45.5486 111.376 45.8534C111.125 46.1662 110.98 46.5131 110.943 46.8943C110.913 47.2712 111.016 47.6731 111.251 48.1002C111.456 48.472 111.695 48.7272 111.968 48.8661C112.245 49.0128 112.537 49.0741 112.844 49.05C113.15 49.026 113.449 48.9396 113.739 48.791L114.589 50.3332Z" fill="#181818"/>
<path d="M119.574 50.8856L120.891 54.657L119.52 55.1338L118.202 51.3624L119.574 50.8856ZM121.699 51.2078L122.261 52.8186L115.366 55.2159C115.127 55.2991 114.968 55.4212 114.89 55.5821C114.821 55.74 114.828 55.9383 114.911 56.177L115.157 56.8801L113.785 57.3569L113.535 56.641C113.267 55.8739 113.244 55.2319 113.466 54.7151C113.691 54.2068 114.137 53.8368 114.803 53.6051L121.699 51.2078Z" fill="#181818"/>
<path d="M119.972 70.4232C119.079 70.492 118.302 70.4252 117.642 70.2226C116.991 70.0194 116.472 69.652 116.086 69.1205C115.7 68.589 115.472 67.8688 115.401 66.9599C115.33 66.042 115.444 65.2908 115.744 64.7065C116.044 64.1221 116.499 63.6751 117.11 63.3654C117.731 63.064 118.488 62.8789 119.382 62.81L119.516 64.5378C118.947 64.5817 118.465 64.6777 118.068 64.826C117.68 64.9826 117.39 65.2223 117.198 65.5449C117.005 65.8676 116.929 66.2989 116.971 66.8388C117.013 67.3788 117.154 67.7889 117.393 68.0691C117.633 68.3584 117.957 68.5462 118.363 68.6326C118.778 68.7273 119.27 68.7527 119.839 68.7089L119.972 70.4232ZM124.795 62.3926L124.929 64.1204L119.516 64.5378L119.382 62.81L124.795 62.3926ZM125.252 68.2914L125.385 70.0057L119.972 70.4232L119.839 68.7089L125.252 68.2914Z" fill="#181818"/>
<path d="M118.05 74.8515C117.64 74.8466 117.322 74.9849 117.096 75.2664C116.879 75.5489 116.744 75.9007 116.692 76.3217C116.643 76.7248 116.678 77.0656 116.799 77.3442C116.919 77.6227 117.146 77.7824 117.478 77.8232C117.676 77.8474 117.839 77.7811 117.968 77.6241C118.104 77.4772 118.221 77.2688 118.318 76.9988C118.414 76.7377 118.509 76.4493 118.603 76.1334C118.696 75.8175 118.804 75.4988 118.926 75.1773C119.057 74.8569 119.215 74.5717 119.401 74.3217C119.596 74.0728 119.843 73.8803 120.142 73.7443C120.442 73.6083 120.807 73.5667 121.238 73.6196C121.642 73.6693 122.008 73.846 122.335 74.1499C122.671 74.4549 122.923 74.8541 123.09 75.3475C123.265 75.851 123.314 76.4073 123.239 77.0164C123.172 77.5629 122.998 78.0508 122.717 78.4801C122.444 78.9194 122.097 79.2543 121.676 79.4845C121.256 79.7148 120.79 79.7985 120.278 79.7357L120.482 78.0829C120.899 78.0978 121.211 77.9769 121.416 77.7201C121.628 77.4734 121.758 77.1619 121.804 76.7857C121.861 76.3288 121.814 75.9729 121.663 75.7179C121.511 75.4719 121.3 75.3324 121.031 75.2993C120.806 75.2717 120.621 75.3309 120.475 75.4767C120.338 75.6325 120.216 75.8404 120.111 76.1004C120.014 76.3703 119.919 76.6633 119.825 76.9792C119.73 77.304 119.622 77.6227 119.502 77.9353C119.38 78.2568 119.226 78.5426 119.04 78.7926C118.855 79.0426 118.617 79.2316 118.328 79.3598C118.046 79.498 117.694 79.5412 117.272 79.4894C116.796 79.431 116.395 79.2498 116.068 78.9459C115.739 78.651 115.501 78.2579 115.352 77.7667C115.212 77.2766 115.181 76.7136 115.259 76.0775C115.332 75.4863 115.511 74.9626 115.795 74.5064C116.088 74.0513 116.446 73.6997 116.869 73.4515C117.299 73.2133 117.763 73.1156 118.259 73.1584L118.05 74.8515Z" fill="#181818"/>
<path d="M118.212 89.5465L120.305 89.1279L120.431 89.5963L120.556 90.0646L118.533 90.7561L118.212 89.5465ZM118.745 88.1556L119.794 87.4686L120.838 89.3312L120.431 89.5963L120.024 89.8613L118.745 88.1556ZM120.053 89.2926L121.285 87.5594L122.252 88.3344L120.808 89.8999L120.431 89.5963L120.053 89.2926ZM120.605 89.1411L122.644 89.7743L122.198 90.9376L120.256 90.0515L120.431 89.5963L120.605 89.1411ZM119.942 89.5835L120.431 89.5963L120.91 89.6343L120.937 91.7611L119.699 91.6941L119.942 89.5835Z" fill="#181818"/>
<path d="M107.434 103.548C106.818 103.012 106.369 102.42 106.086 101.771C105.798 101.13 105.702 100.457 105.799 99.7526C105.897 99.0608 106.214 98.3565 106.749 97.6396C107.348 96.8358 108.036 96.2835 108.813 95.9826C109.592 95.6944 110.391 95.6291 111.21 95.7866C112.028 95.9441 112.808 96.2976 113.548 96.8471C114.093 97.2512 114.545 97.7107 114.906 98.2256C115.268 98.7531 115.512 99.3109 115.637 99.8989C115.762 100.487 115.754 101.088 115.611 101.702C115.471 102.329 115.174 102.947 114.72 103.555C113.958 104.576 113.092 105.171 112.121 105.339C111.151 105.519 110.166 105.328 109.165 104.765L110.259 103.299C110.533 103.446 110.81 103.55 111.091 103.612C111.366 103.682 111.639 103.693 111.911 103.647C112.184 103.614 112.447 103.511 112.699 103.338C112.954 103.178 113.203 102.936 113.446 102.61C113.84 102.081 114.04 101.549 114.045 101.012C114.045 100.484 113.9 99.9823 113.61 99.5086C113.315 99.0422 112.936 98.6366 112.471 98.2918C111.999 97.9416 111.497 97.6926 110.964 97.5449C110.426 97.4043 109.899 97.4072 109.384 97.5536C108.871 97.7127 108.417 98.0565 108.023 98.5851C107.758 98.94 107.585 99.2782 107.503 99.5998C107.428 99.9269 107.422 100.237 107.485 100.531C107.547 100.825 107.669 101.101 107.849 101.359C108.024 101.623 108.244 101.872 108.511 102.103L107.434 103.548Z" fill="#181818"/>
<path d="M99.8441 105.095C100.437 104.593 101.066 104.279 101.731 104.153C102.395 104.041 103.048 104.11 103.688 104.36C104.322 104.617 104.891 105.041 105.395 105.633C105.905 106.231 106.235 106.863 106.386 107.528C106.53 108.2 106.493 108.853 106.274 109.488C106.048 110.13 105.635 110.704 105.035 111.213C104.442 111.715 103.814 112.023 103.15 112.135C102.486 112.248 101.837 112.176 101.203 111.919C100.562 111.669 99.9871 111.244 99.4774 110.646C98.9737 110.054 98.6497 109.423 98.5055 108.751C98.3544 108.086 98.3883 107.436 98.6071 106.8C98.8317 106.172 99.2441 105.603 99.8441 105.095ZM100.827 106.27C100.475 106.568 100.246 106.898 100.139 107.261C100.038 107.631 100.046 108.009 100.162 108.396C100.284 108.79 100.497 109.166 100.802 109.524C101.112 109.889 101.452 110.163 101.823 110.346C102.193 110.53 102.566 110.599 102.942 110.553C103.324 110.513 103.691 110.345 104.043 110.047C104.401 109.743 104.631 109.406 104.732 109.036C104.838 108.674 104.831 108.295 104.709 107.901C104.587 107.507 104.371 107.128 104.06 106.763C103.756 106.405 103.418 106.135 103.048 105.951C102.684 105.774 102.311 105.705 101.929 105.745C101.553 105.791 101.185 105.966 100.827 106.27Z" fill="#181818"/>
<path d="M98.8495 115.689L97.3501 116.509L96.7691 115.453C96.8037 115.722 96.7838 115.996 96.7093 116.273C96.6313 116.563 96.4821 116.845 96.2618 117.12C96.0415 117.395 95.7211 117.648 95.3006 117.878C94.8722 118.112 94.4435 118.234 94.0146 118.242C93.5856 118.25 93.165 118.105 92.7526 117.805C92.3367 117.518 91.9416 117.034 91.5673 116.354L89.3152 112.258L90.8146 111.438L92.9819 115.379C93.1516 115.687 93.3317 115.949 93.5222 116.164C93.7126 116.379 93.9281 116.508 94.1687 116.552C94.4014 116.599 94.6763 116.536 94.9937 116.363C95.2714 116.211 95.5015 115.982 95.6842 115.676C95.8669 115.37 95.9542 115.003 95.9459 114.575C95.942 114.155 95.7943 113.68 95.5027 113.15L93.6945 109.862L95.1939 109.042L98.8495 115.689Z" fill="#181818"/>
<path d="M90.2779 120.052L86.505 121.389L86.0187 120.024L89.7916 118.687L90.2779 120.052ZM89.9678 122.173L88.3563 122.745L85.9111 115.881C85.8262 115.643 85.7029 115.486 85.5411 115.409C85.3824 115.341 85.1836 115.349 84.9449 115.433L84.2415 115.683L83.7551 114.318L84.4714 114.064C85.2387 113.792 85.8821 113.765 86.4016 113.983C86.9126 114.204 87.2862 114.647 87.5225 115.31L89.9678 122.173Z" fill="#181818"/>
<path d="M77.9965 120.078L76.3275 120.382L75.546 116.121L77.215 115.816L77.9965 120.078ZM80.1171 123.214C79.0756 123.404 78.2317 123.242 77.5853 122.727C76.9389 122.212 76.5197 121.43 76.3275 120.382L77.9965 120.078C78.0649 120.451 78.1696 120.771 78.3107 121.039C78.4446 121.317 78.6382 121.521 78.8917 121.649C79.1362 121.779 79.4543 121.808 79.846 121.736C80.3622 121.642 80.7295 121.437 80.9476 121.122C81.1658 120.807 81.2407 120.463 81.1724 120.09L82.9348 119.769C83.0259 120.266 82.9815 120.751 82.8016 121.224C82.6143 121.708 82.2959 122.129 81.8463 122.486C81.3966 122.843 80.8203 123.086 80.1171 123.214ZM77.9229 120.504L77.43 119.397C78.584 119.269 79.3992 119.024 79.8755 118.662C80.3534 118.308 80.5541 117.923 80.4776 117.506C80.4206 117.195 80.2715 116.984 80.0302 116.872C79.7889 116.76 79.4991 116.735 79.1609 116.796C78.8671 116.85 78.601 116.953 78.3624 117.107C78.1238 117.261 77.9464 117.472 77.8301 117.741C77.7066 118.02 77.6814 118.36 77.7547 118.76L77.2819 118.213C77.2174 117.711 77.2481 117.251 77.3739 116.833C77.4908 116.417 77.7025 116.067 78.0089 115.782C78.317 115.505 78.7247 115.321 79.232 115.228C79.7216 115.139 80.174 115.148 80.5893 115.256C81.0063 115.372 81.3577 115.583 81.6438 115.889C81.9298 116.195 82.1184 116.596 82.2096 117.093C82.2975 117.573 82.2765 117.985 82.1465 118.33C82.0077 118.676 81.7907 118.973 81.4956 119.219C81.2004 119.466 80.8563 119.671 80.4631 119.834C80.0699 119.998 79.6525 120.129 79.2107 120.228C78.7705 120.336 78.3412 120.428 77.9229 120.504Z" fill="#181818"/>
<path d="M65.9686 119.472C65.9876 118.822 66.1503 118.242 66.4567 117.732C66.7631 117.223 67.1855 116.823 67.7239 116.533C68.2531 116.252 68.8751 116.117 69.5898 116.128C70.3679 116.14 71.0485 116.317 71.6315 116.66C72.2053 117.012 72.6504 117.493 72.9669 118.102C73.2743 118.712 73.4221 119.404 73.4102 120.181C73.3982 120.966 73.2293 121.658 72.9033 122.258C72.5684 122.858 72.1088 123.325 71.5245 123.659C70.9311 123.993 70.2454 124.154 69.4673 124.142C68.7797 124.132 68.1758 123.969 67.6558 123.654C67.1265 123.348 66.7163 122.949 66.4252 122.457C66.1249 121.974 65.9745 121.453 65.974 120.893L67.7654 120.921C67.7702 121.201 67.8341 121.463 67.957 121.709C68.0708 121.963 68.2531 122.174 68.5039 122.34C68.7548 122.506 69.0838 122.593 69.4909 122.599C69.9795 122.606 70.3838 122.504 70.7037 122.292C71.0237 122.081 71.2635 121.786 71.4231 121.41C71.5735 121.042 71.6523 120.623 71.6595 120.154C71.6665 119.694 71.6005 119.277 71.4614 118.905C71.3132 118.533 71.0825 118.236 70.7691 118.015C70.4556 117.802 70.0546 117.692 69.566 117.685C69.1408 117.678 68.8002 117.759 68.5442 117.927C68.2792 118.094 68.0813 118.317 67.9503 118.595C67.8194 118.872 67.7469 119.174 67.7329 119.498L65.9686 119.472Z" fill="#181818"/>
<path d="M63.0213 123.522L59.0828 122.803L59.3444 121.378L63.2829 122.097L63.0213 123.522ZM61.6911 125.206L60.0089 124.899L61.3242 117.734C61.3698 117.486 61.3417 117.288 61.2399 117.141C61.1365 117.003 60.9602 116.911 60.711 116.865L59.9767 116.731L60.2383 115.306L60.9859 115.443C61.787 115.589 62.358 115.886 62.699 116.334C63.0311 116.78 63.1335 117.349 63.0064 118.042L61.6911 125.206Z" fill="#181818"/>
<path d="M45.777 114.209C46.1589 113.401 46.6013 112.761 47.1044 112.289C47.6036 111.825 48.1802 111.557 48.8343 111.486C49.4884 111.414 50.2288 111.573 51.0555 111.961C51.8904 112.354 52.4883 112.824 52.8492 113.373C53.2101 113.922 53.3743 114.538 53.3416 115.221C53.2969 115.908 53.0837 116.656 52.7018 117.464L51.1302 116.726C51.3732 116.211 51.5283 115.745 51.5955 115.328C51.6506 114.915 51.5853 114.545 51.3996 114.218C51.2139 113.891 50.8754 113.613 50.3843 113.382C49.8932 113.151 49.4663 113.07 49.1036 113.139C48.7327 113.204 48.4092 113.391 48.1331 113.7C47.8449 114.014 47.5793 114.428 47.3363 114.942L45.777 114.209ZM50.3873 122.363L48.8157 121.625L51.1302 116.726L52.7018 117.464L50.3873 122.363ZM45.0218 119.841L43.4625 119.108L45.777 114.209L47.3363 114.942L45.0218 119.841Z" fill="#181818"/>
<path d="M42.9467 110.391C43.1537 110.039 43.1907 109.695 43.0576 109.359C42.919 109.031 42.6793 108.74 42.3382 108.487C42.0118 108.244 41.6973 108.106 41.395 108.073C41.0927 108.039 40.8415 108.157 40.6414 108.424C40.5225 108.584 40.4995 108.758 40.5724 108.947C40.6327 109.138 40.7564 109.343 40.9435 109.561C41.1233 109.773 41.3276 109.998 41.5563 110.236C41.7851 110.473 42.0094 110.725 42.2292 110.989C42.4435 111.261 42.6136 111.54 42.7393 111.824C42.8597 112.117 42.905 112.426 42.8752 112.753C42.8454 113.08 42.7008 113.417 42.4412 113.764C42.1979 114.09 41.8629 114.319 41.4362 114.452C41.0041 114.593 40.5318 114.613 40.0193 114.513C39.4942 114.416 38.985 114.183 38.4916 113.817C38.049 113.488 37.7103 113.095 37.4754 112.639C37.2279 112.185 37.108 111.719 37.1156 111.24C37.1231 110.762 37.281 110.317 37.5893 109.904L38.9279 110.899C38.7082 111.254 38.6594 111.583 38.7816 111.888C38.8911 112.194 39.0982 112.461 39.403 112.688C39.773 112.963 40.1064 113.098 40.4032 113.093C40.6927 113.083 40.9186 112.97 41.0808 112.753C41.216 112.572 41.2561 112.382 41.2012 112.184C41.1337 111.987 41.0127 111.779 40.8383 111.559C40.6512 111.342 40.4433 111.114 40.2146 110.876C39.9785 110.633 39.7543 110.382 39.5417 110.123C39.322 109.858 39.1492 109.583 39.0234 109.299C38.8977 109.014 38.8506 108.714 38.8823 108.4C38.9012 108.088 39.0378 107.761 39.2919 107.421C39.5785 107.038 39.9351 106.779 40.3618 106.646C40.7813 106.508 41.2418 106.496 41.7434 106.61C42.2397 106.731 42.7454 106.983 43.2605 107.366C43.7394 107.722 44.1071 108.136 44.3637 108.608C44.6149 109.088 44.744 109.572 44.7509 110.061C44.7452 110.552 44.6009 111.002 44.318 111.411L42.9467 110.391Z" fill="#181818"/>
<path d="M30.057 103.267L29.3898 105.29L28.9195 105.168L28.4491 105.046L28.8439 102.948L30.057 103.267ZM31.007 104.416L31.0893 105.664L28.95 105.652L28.9195 105.168L28.8889 104.684L31.007 104.416ZM29.3705 104.99L30.2748 106.913L29.122 107.37L28.4685 105.346L28.9195 105.168L29.3705 104.99ZM29.2304 105.544L27.6728 107.001L26.8783 106.04L28.6086 104.792L28.9195 105.168L29.2304 105.544ZM29.1719 104.749L28.9195 105.168L28.6498 105.565L26.7816 104.54L27.4508 103.498L29.1719 104.749Z" fill="#181818"/>
<path d="M23.1466 87.0058C23.9171 86.7354 24.6551 86.6373 25.3606 86.7114C26.0623 86.7772 26.6966 87.0257 27.2634 87.4568C27.8182 87.8834 28.2765 88.5053 28.6384 89.3227C29.0442 90.2392 29.1868 91.1088 29.0663 91.9315C28.9339 92.7496 28.5973 93.475 28.0564 94.1079C27.5156 94.7408 26.8231 95.2432 25.9787 95.6151C25.3579 95.8886 24.7341 96.0548 24.1074 96.1138C23.4687 96.1682 22.8621 96.1049 22.2873 95.9239C21.7126 95.7429 21.1924 95.4392 20.7267 95.0129C20.2491 94.5819 19.8567 94.0197 19.5497 93.3261C19.0343 92.162 18.9426 91.117 19.2746 90.1913C19.5948 89.2609 20.2471 88.5 21.2315 87.9085L21.9717 89.5805C21.7086 89.7457 21.4807 89.9349 21.2882 90.1479C21.092 90.3528 20.9472 90.5843 20.8538 90.8425C20.7485 91.0961 20.7088 91.375 20.7347 91.6794C20.7487 91.9791 20.8379 92.3147 21.0024 92.6863C21.2692 93.289 21.6352 93.7247 22.1004 93.9934C22.5619 94.2539 23.0706 94.3751 23.6265 94.3572C24.1787 94.331 24.7197 94.2013 25.2495 93.9679C25.7875 93.7309 26.2523 93.4177 26.6437 93.0282C27.0314 92.6305 27.2884 92.172 27.4146 91.6526C27.5288 91.1287 27.4526 90.5654 27.1857 89.9626C27.0066 89.5581 26.797 89.2409 26.5568 89.0113C26.3084 88.7852 26.0405 88.627 25.7531 88.5365C25.4657 88.446 25.1654 88.4155 24.852 88.445C24.535 88.4662 24.2096 88.5355 23.8758 88.653L23.1466 87.0058Z" fill="#181818"/>
<path d="M25.5486 79.6486C25.6924 80.4115 25.6542 81.112 25.4339 81.7503C25.203 82.3814 24.8198 82.9125 24.2842 83.3437C23.7469 83.7659 23.0959 84.0488 22.3311 84.1923C21.5574 84.3374 20.8434 84.3107 20.1891 84.112C19.533 83.9044 18.9825 83.5485 18.5376 83.0442C18.0909 82.531 17.7948 81.8886 17.6493 81.1169C17.5054 80.354 17.549 79.6571 17.7798 79.026C18.0107 78.3949 18.3948 77.8682 18.9321 77.446C19.4677 77.0148 20.1223 76.7267 20.896 76.5815C21.6607 76.4381 22.3711 76.4701 23.0272 76.6776C23.6815 76.8763 24.2312 77.2278 24.6762 77.7321C25.1123 78.2381 25.4031 78.8769 25.5486 79.6486ZM24.0388 79.9181C23.9535 79.4657 23.7793 79.1035 23.5162 78.8314C23.2442 78.561 22.9109 78.3801 22.5162 78.2889C22.1126 78.1993 21.6795 78.1979 21.2171 78.2846C20.7458 78.3731 20.3384 78.5322 19.9951 78.7619C19.6517 78.9916 19.407 79.2809 19.261 79.6298C19.1061 79.9803 19.0713 80.3817 19.1566 80.8341C19.2436 81.2953 19.4231 81.6612 19.695 81.9316C19.9581 82.2037 20.2915 82.3845 20.6951 82.4741C21.0987 82.5637 21.5361 82.5643 22.0075 82.4759C22.4699 82.3891 22.8728 82.2308 23.2162 82.0011C23.5507 81.773 23.7954 81.4837 23.9502 81.1332C24.0962 80.7844 24.1257 80.3794 24.0388 79.9181Z" fill="#181818"/>
<path d="M16.8172 73.5074L16.845 71.8018L18.0528 71.8213C17.8011 71.7179 17.5728 71.5653 17.368 71.3634C17.1542 71.1523 16.9821 70.8832 16.8517 70.5561C16.7212 70.2291 16.6599 69.8264 16.6677 69.3481C16.6756 68.8607 16.7822 68.4292 16.9874 68.0533C17.1926 67.6775 17.5277 67.3851 17.9927 67.1759C18.4487 66.9576 19.0658 66.8548 19.8439 66.8674L24.526 66.9432L24.4982 68.6488L19.9925 68.5759C19.6397 68.5702 19.3225 68.5966 19.041 68.6553C18.7595 68.7139 18.5403 68.8367 18.3834 69.0238C18.2267 69.2018 18.1454 69.4713 18.1395 69.8323C18.1344 70.1481 18.2198 70.4609 18.3957 70.7707C18.5717 71.0805 18.848 71.3377 19.2248 71.5424C19.5925 71.7469 20.0795 71.8541 20.6857 71.8639L24.4449 71.9248L24.4172 73.6304L16.8172 73.5074Z" fill="#181818"/>
<path d="M17.2559 63.9181L17.9536 59.9853L19.3837 60.2377L18.686 64.1705L17.2559 63.9181ZM15.5598 62.6013L15.8577 60.9216L23.0484 62.1906C23.2978 62.2346 23.496 62.2054 23.6428 62.103C23.7807 61.999 23.8717 61.8226 23.9159 61.5738L24.046 60.8405L25.4761 61.0929L25.3436 61.8395C25.2017 62.6394 24.9074 63.2107 24.4607 63.5535C24.0155 63.8874 23.4454 63.9931 22.7504 63.8704L15.5598 62.6013Z" fill="#181818"/>
<path d="M23.2972 53.254L23.8559 51.656L27.957 53.0827L27.3983 54.6807L23.2972 53.254ZM19.5156 53.5443C19.8643 52.5472 20.4228 51.8955 21.1911 51.5893C21.9594 51.283 22.8477 51.3053 23.8559 51.656L23.2972 53.254C22.9383 53.1291 22.6073 53.0618 22.3041 53.0519C21.9953 53.0305 21.7225 53.0981 21.4857 53.2547C21.2518 53.4027 21.0693 53.6643 20.9382 54.0392C20.7654 54.5335 20.7624 54.9531 20.9294 55.2979C21.0963 55.6428 21.3592 55.8776 21.718 56.0025L21.128 57.6899C20.6495 57.5234 20.2485 57.2453 19.9248 56.8555C19.5955 56.4542 19.3861 55.9703 19.2967 55.4039C19.2073 54.8375 19.2802 54.2176 19.5156 53.5443ZM22.9618 52.9796L24.1707 53.099C23.7124 54.1631 23.5235 54.9912 23.604 55.5832C23.6759 56.1722 23.9127 56.5366 24.3143 56.6763C24.6133 56.7803 24.8712 56.7553 25.088 56.6013C25.3047 56.4473 25.4697 56.2084 25.583 55.8845C25.6813 55.6033 25.7224 55.3212 25.7063 55.0384C25.6902 54.7556 25.5936 54.4974 25.4166 54.2637C25.234 54.0186 24.9504 53.8291 24.5659 53.6954L25.2762 53.5553C25.7457 53.7473 26.1314 54.001 26.4332 54.3163C26.738 54.6231 26.9391 54.9798 27.0365 55.3865C27.1253 55.7902 27.0848 56.2349 26.915 56.7207C26.7511 57.1894 26.5196 57.5773 26.2206 57.8843C25.9131 58.1884 25.5554 58.3889 25.1477 58.4861C24.74 58.5832 24.2969 58.5486 23.8184 58.3821C23.3571 58.2216 23.0081 57.9999 22.7717 57.7169C22.5382 57.4253 22.3869 57.0907 22.3177 56.7129C22.2485 56.3352 22.2398 55.9354 22.2914 55.5137C22.343 55.0919 22.4348 54.665 22.5667 54.233C22.6901 53.7979 22.8218 53.3801 22.9618 52.9796Z" fill="#181818"/>
<path d="M29.761 43.1549C30.3174 43.493 30.7419 43.9211 31.0342 44.4391C31.3266 44.9571 31.4657 45.5212 31.4515 46.1312C31.434 46.7288 31.2436 47.3346 30.8803 47.9487C30.4847 48.6171 29.9932 49.1191 29.4059 49.4546C28.8155 49.7777 28.1764 49.9254 27.4887 49.8979C26.8056 49.8625 26.129 49.6475 25.4588 49.253C24.7809 48.8538 24.2614 48.3645 23.9003 47.7851C23.5438 47.1978 23.3646 46.5683 23.3629 45.8965C23.3658 45.217 23.565 44.5429 23.9606 43.8745C24.3101 43.2838 24.7508 42.841 25.2825 42.5462C25.8111 42.239 26.3616 42.081 26.9342 42.0723C27.5036 42.0511 28.0321 42.1789 28.5199 42.4556L27.6091 43.9946C27.363 43.8602 27.1025 43.7854 26.8277 43.7704C26.5497 43.7429 26.2762 43.7968 26.0071 43.9318C25.7381 44.0669 25.5001 44.3093 25.2931 44.659C25.0447 45.0788 24.9335 45.4797 24.9595 45.8619C24.9856 46.244 25.1231 46.5975 25.3722 46.9224C25.6181 47.2348 25.9437 47.5104 26.3489 47.7489C26.7463 47.9829 27.1415 48.1318 27.5346 48.1955C27.9323 48.2515 28.3052 48.1985 28.6532 48.0366C28.9934 47.8701 29.2877 47.577 29.5361 47.1572C29.7522 46.7919 29.8507 46.4569 29.8314 46.152C29.8168 45.8395 29.7209 45.5576 29.5437 45.3066C29.3665 45.0556 29.14 44.8436 28.864 44.6706L29.761 43.1549Z" fill="#181818"/>
<path d="M27.6896 38.6048L30.2669 35.5482L31.3784 36.4807L28.8011 39.5372L27.6896 38.6048ZM26.8819 36.618L27.9827 35.3125L33.5712 40.0009C33.7651 40.1636 33.9513 40.2372 34.1297 40.2218C34.3013 40.2007 34.4686 40.0934 34.6317 39.9L35.1122 39.3301L36.2237 40.2625L35.7345 40.8428C35.2103 41.4644 34.6688 41.8121 34.11 41.8859C33.5571 41.9527 33.0105 41.7596 32.4704 41.3064L26.8819 36.618Z" fill="#181818"/>
<path d="M44.3098 28.2622C44.827 28.9918 45.1675 29.6912 45.3315 30.3604C45.4903 31.0222 45.4398 31.6546 45.1802 32.2577C44.9206 32.8608 44.4177 33.4255 43.6714 33.9517C42.9178 34.4832 42.2126 34.7704 41.556 34.8134C40.8994 34.8564 40.2812 34.6954 39.7013 34.3306C39.1235 33.9533 38.5761 33.3997 38.0589 32.6701L39.4776 31.6697C39.8067 32.134 40.1368 32.4982 40.4679 32.7621C40.8011 33.0134 41.1561 33.1389 41.5327 33.1387C41.9092 33.1384 42.3192 32.982 42.7625 32.6693C43.2058 32.3567 43.4867 32.026 43.6052 31.6772C43.7311 31.3231 43.7271 30.9501 43.5933 30.5581C43.4617 30.1535 43.2314 29.719 42.9023 29.2547L44.3098 28.2622ZM34.9248 28.248L36.3434 27.2477L39.4776 31.6697L38.0589 32.6701L34.9248 28.248ZM39.7681 24.8327L41.1757 23.8401L44.3098 28.2622L42.9023 29.2547L39.7681 24.8327Z" fill="#181818"/>
<path d="M49.0362 27.6813C49.2418 28.0348 49.5237 28.2364 49.8819 28.2862C50.2364 28.3276 50.6082 28.2628 50.9974 28.0918C51.37 27.928 51.6454 27.7231 51.8235 27.4772C52.0016 27.2312 52.0232 26.9555 51.8882 26.6499C51.8079 26.4681 51.6672 26.3623 51.4661 26.3323C51.2696 26.2905 51.0303 26.297 50.748 26.352C50.4741 26.4034 50.1771 26.4698 49.8571 26.5513C49.5371 26.6327 49.2075 26.7036 48.8683 26.7639C48.5254 26.816 48.1988 26.8264 47.8883 26.7951C47.5743 26.7556 47.282 26.6425 47.0116 26.4555C46.7411 26.2686 46.5183 25.977 46.3432 25.5805C46.179 25.2088 46.144 24.805 46.2382 24.3691C46.3288 23.9249 46.5438 23.5049 46.8831 23.1092C47.2271 22.7016 47.6807 22.374 48.2438 22.1266C48.7489 21.9046 49.2582 21.804 49.7717 21.8249C50.2899 21.8339 50.7557 21.9596 51.1693 22.2019C51.5829 22.4443 51.8937 22.8008 52.1016 23.2716L50.5739 23.9431C50.3729 23.5777 50.1094 23.3729 49.7834 23.3288C49.462 23.2728 49.1274 23.3212 48.7797 23.4741C48.3574 23.6597 48.075 23.8824 47.9327 24.1422C47.7987 24.3984 47.7864 24.6503 47.8958 24.8981C47.987 25.1046 48.1327 25.2329 48.3328 25.2831C48.5376 25.3213 48.7788 25.3189 49.0564 25.2758C49.3386 25.2208 49.6397 25.1525 49.9597 25.0711C50.288 24.986 50.6176 24.9151 50.9485 24.8584C51.2878 24.7981 51.6126 24.7836 51.923 24.8148C52.2335 24.846 52.5179 24.9528 52.7764 25.1351C53.0396 25.3055 53.2569 25.5847 53.4284 25.973C53.6217 26.4107 53.6713 26.8476 53.5771 27.2835C53.4912 27.7158 53.2749 28.1215 52.9282 28.5007C52.5779 28.8717 52.1088 29.1863 51.5209 29.4447C50.9744 29.6849 50.4319 29.8 49.8936 29.7901C49.3516 29.7718 48.8655 29.6452 48.4353 29.4101C48.0098 29.1632 47.6884 28.8162 47.4712 28.3692L49.0362 27.6813Z" fill="#181818"/>
<path d="M61.6222 20.02L60.1907 18.4399L60.5299 18.0927L60.8691 17.7456L62.5002 19.1263L61.6222 20.02ZM60.1511 20.2742L59.023 19.7271L60.0934 17.8796L60.5299 18.0927L60.9664 18.3058L60.1511 20.2742ZM60.4615 18.5717L58.3384 18.4027L58.5113 17.1774L60.5982 17.6137L60.5299 18.0927L60.4615 18.5717ZM60.0484 18.1759L59.551 16.1046L60.7813 15.892L61.0113 18.0095L60.5299 18.0927L60.0484 18.1759ZM60.7691 18.5185L60.5299 18.0927L60.3174 17.6623L62.1356 16.5511L62.7116 17.647L60.7691 18.5185Z" fill="#181818"/>
<circle cx="71" cy="71" r="30" fill="#181818"/>
<path d="M76.6048 86.1629C76.3188 85.9442 76.047 85.707 75.7909 85.4525C75.0751 84.7407 74.4929 83.904 74.0764 82.9864C73.644 82.0345 73.3963 81.0065 73.3475 79.9629L73.342 66.3387L73.3399 66.2966C73.3101 65.6604 73.1593 65.0325 72.8961 64.4531C72.6415 63.8924 72.2862 63.3815 71.8486 62.9467C71.3838 62.4844 70.833 62.1151 70.227 61.861C69.6006 61.5979 68.9235 61.4626 68.2437 61.4632C67.5626 61.463 66.8836 61.5983 66.2568 61.8626C65.6509 62.1173 65.1003 62.4869 64.6353 62.949C64.1704 63.4115 63.7986 63.959 63.5424 64.5613C63.2768 65.1847 63.1404 65.8594 63.1408 66.536V67.9435V76.6031L63.1406 76.6033H66.728V67.9434V66.5352C66.7287 66.3323 66.767 66.1387 66.8451 65.9529C66.9215 65.7728 67.0334 65.6083 67.1718 65.4709C67.3101 65.3332 67.4754 65.2221 67.656 65.1465C67.8436 65.0683 68.0388 65.0304 68.2417 65.0295C68.4474 65.0304 68.6434 65.0681 68.8304 65.1461C69.0105 65.2214 69.1751 65.3317 69.3124 65.4682C69.4429 65.5985 69.5506 65.7527 69.6266 65.9195C69.7492 66.1931 69.7184 66.062 69.7506 66.3806L69.7549 66.4213C69.7552 70.8966 69.756 75.3718 69.756 79.8469H59.8782L59.8781 66.5365C59.8775 65.4249 60.1017 64.3197 60.5379 63.296C60.9573 62.31 61.5665 61.4125 62.3282 60.6551C63.09 59.8978 63.9927 59.2923 64.985 58.8748C66.014 58.4412 67.1256 58.2186 68.2434 58.2188C69.3587 58.2182 70.4684 58.4405 71.4965 58.8724C72.4895 59.2891 73.3934 59.8944 74.1559 60.6524C74.8719 61.3642 75.4538 62.2008 75.8703 63.1185C76.3027 64.0704 76.5505 65.0984 76.5992 66.142L76.6049 66.2579V66.2965C76.6048 70.239 76.6048 82.2205 76.6048 86.1629Z" fill="#EDC701"/>
<path d="M66.7279 69.7743V67.9433V66.5351C66.7286 66.3322 66.767 66.1385 66.8451 65.9528C66.9214 65.7727 67.0333 65.6082 67.1717 65.4708C67.3101 65.333 67.4753 65.2219 67.6559 65.1464C67.8435 65.0682 68.0387 65.0303 68.2416 65.0293C68.4474 65.0303 68.6433 65.068 68.8304 65.146C69.0104 65.2213 69.175 65.3316 69.3123 65.4681C69.4428 65.5984 69.5506 65.7526 69.6265 65.9194C69.7492 66.193 69.7183 66.0619 69.7506 66.3804L69.7548 66.4212C69.7552 70.8964 69.7559 75.3717 69.7559 79.8468H69.7557L69.7548 69.6699L69.7506 69.6292C69.7183 69.3106 69.7492 69.4416 69.6265 69.1681C69.5506 69.0013 69.4428 68.8471 69.3123 68.7168C69.1751 68.5803 69.0104 68.47 68.8304 68.3947C68.6434 68.3167 68.4474 68.2789 68.2416 68.2781C68.0388 68.2789 67.8435 68.3169 67.6559 68.3951C67.4753 68.4706 67.3101 68.5818 67.1717 68.7195C67.0333 68.8568 66.9214 69.0213 66.8451 69.2014C66.7682 69.3845 66.7299 69.5749 66.7279 69.7743ZM68.5891 61.4744C68.4743 61.4667 68.3589 61.4629 68.2436 61.4631C68.1281 61.4631 68.0127 61.4669 67.8975 61.4746C66.897 61.5155 65.9076 61.7346 64.985 62.1235C63.9926 62.541 63.0899 63.1466 62.3281 63.9038C61.5664 64.6612 60.9572 65.5588 60.5379 66.5447C60.1083 67.5524 59.8846 68.6391 59.8782 69.7331L59.8781 66.5365C59.8775 65.4249 60.1016 64.3197 60.5379 63.296C60.9573 62.31 61.5665 61.4125 62.3282 60.6551C63.09 59.8978 63.9927 59.2923 64.985 58.8748C66.014 58.4412 67.1256 58.2186 68.2434 58.2188C69.3587 58.2182 70.4684 58.4405 71.4965 58.8724C72.4895 59.2891 73.3934 59.8944 74.1559 60.6524C74.8719 61.3642 75.4538 62.2008 75.8703 63.1185C76.3027 64.0704 76.5505 65.0984 76.5992 66.142L76.6049 66.2579V66.2965V69.5066L76.5992 69.3906C76.5505 68.3471 76.3027 67.3191 75.8703 66.3672C75.4538 65.4494 74.8719 64.6128 74.1559 63.9011C73.3934 63.1431 72.4895 62.5377 71.4965 62.121C70.5747 61.7339 69.5874 61.5151 68.5891 61.4744ZM63.1407 76.6031H66.7279V79.8469H63.1407V76.6031Z" fill="#EDC701"/>
<path d="M83.133 86.1606C82.847 85.9419 82.5751 85.7047 82.319 85.4501C81.6032 84.7384 81.0211 83.9017 80.6046 82.984C80.2545 82.2133 80.0255 81.3927 79.9251 80.5545V66.2943V66.175L79.9155 65.9805C79.8478 64.525 79.5013 63.0893 78.8964 61.7575C78.3153 60.4771 77.5027 59.3088 76.5032 58.3152C75.5309 57.3484 74.3931 56.5592 73.1464 55.9861C73.6805 55.8811 74.2252 55.8281 74.7715 55.8281C75.8869 55.8276 76.9965 56.0499 78.0246 56.4817C79.0177 56.8985 79.9216 57.5038 80.684 58.2618C81.4001 58.9735 81.982 59.8102 82.3985 60.7279C82.8309 61.6798 83.0786 62.7078 83.1274 63.7513L83.1331 63.8673V63.9059C83.133 67.8484 83.133 82.2182 83.133 86.1606Z" fill="#EDC701"/>
</svg>
