<svg width="95" height="99" viewBox="0 0 95 99" fill="none" xmlns="http://www.w3.org/2000/svg">
<path d="M3.93805 57.5508L20.2639 56.9434L13.5334 62.475L12.3705 71.6752L3.93805 57.5508Z" fill="white"/>
<path d="M9.05463 58.9382C8.97173 59.026 8.99136 59.2223 9.11578 59.4978C9.18021 59.6446 9.26693 59.805 9.37597 59.9789C9.42713 60.0716 9.48944 60.171 9.56291 60.2772L9.66752 60.4331C9.70983 60.4896 9.741 60.5393 9.78331 60.5958C9.95255 60.8218 10.1441 61.0614 10.358 61.3146C10.4114 61.3779 10.4649 61.4412 10.5295 61.5113C10.583 61.5746 10.6476 61.6447 10.7122 61.7148C10.8303 61.8481 10.9663 61.9771 11.1066 62.1241C11.383 62.4 11.6682 62.712 12.0071 63.0106C12.1765 63.1599 12.3392 63.3205 12.5198 63.4766C12.6067 63.5603 12.7004 63.6327 12.7873 63.7164C12.8743 63.8001 12.9679 63.8725 13.0727 63.9517C14.5867 65.2121 16.5495 66.5615 18.8814 67.7518C19.0331 67.8289 19.167 67.9104 19.3255 67.9763L19.7763 68.1895C20.0865 68.3324 20.3788 68.4797 20.7069 68.6182C21.0239 68.7498 21.352 68.8883 21.6689 69.0199C21.8274 69.0858 21.997 69.1584 22.1555 69.2242C22.3207 69.2788 22.4903 69.3514 22.6555 69.406C22.8207 69.4605 22.9904 69.5331 23.1556 69.5877C23.3319 69.649 23.4904 69.7149 23.6735 69.765C24.0151 69.8809 24.3634 69.9856 24.7161 70.1083C24.8076 70.1333 24.8924 70.1696 24.984 70.1947L25.2228 70.2788C25.4059 70.3289 25.5779 70.3722 25.761 70.4223C25.9441 70.4724 26.1272 70.5225 26.2991 70.5658C26.4822 70.6159 26.672 70.6547 26.8439 70.698C27.027 70.7481 27.2459 70.7893 27.4692 70.8485C27.5898 70.8759 27.7104 70.9033 27.8421 70.9374C27.9738 70.9716 28.1123 70.9945 28.2508 71.0174C28.5389 71.0701 28.8493 71.1363 29.1776 71.198C29.258 71.2163 29.3384 71.2345 29.4367 71.2483C29.5238 71.2553 29.6153 71.2804 29.7025 71.2873C29.8811 71.3194 30.0665 71.3402 30.2563 71.379C31.7863 71.6198 33.6984 71.8323 35.9282 71.8696C36.489 71.8733 37.061 71.8838 37.6643 71.8673C37.9614 71.8794 38.2609 71.8621 38.5715 71.8517C38.8709 71.8344 39.1883 71.8126 39.5056 71.7909C39.6643 71.78 39.8229 71.7692 39.9816 71.7583C40.0576 71.7585 40.1403 71.7474 40.223 71.7364C40.3057 71.7253 40.3817 71.7255 40.4644 71.7144C40.7884 71.6814 41.1125 71.6485 41.4477 71.6222C41.6064 71.6114 41.7785 71.578 41.9439 71.5559C42.1093 71.5337 42.2747 71.5116 42.4401 71.4895C42.7776 71.434 43.1196 71.3965 43.4639 71.3297C43.8081 71.2629 44.1568 71.2142 44.5122 71.1542C44.5949 71.1431 44.6844 71.1208 44.7738 71.0985C44.8632 71.0762 44.9459 71.0651 45.0353 71.0428C45.2142 70.9981 45.3864 70.9647 45.5764 70.9269C45.7552 70.8822 45.9385 70.8556 46.1174 70.811C46.2962 70.7663 46.4751 70.7217 46.654 70.677C46.8328 70.6324 47.0117 70.5877 47.1973 70.5318C47.2867 70.5095 47.3762 70.4872 47.4723 70.4536L47.6154 70.4178L47.7473 70.3753C48.1118 70.2748 48.483 70.1629 48.8542 70.0511C48.9504 70.0175 49.0398 69.9952 49.1359 69.9616C49.2321 69.928 49.3215 69.9057 49.4177 69.8721C49.6033 69.8162 49.7845 69.7422 49.9768 69.6751C50.1691 69.6079 50.3547 69.552 50.5359 69.478C50.7171 69.4041 50.9094 69.3369 51.0906 69.2629C51.2717 69.1889 51.4641 69.1217 51.652 69.0365C51.7481 69.0029 51.8443 68.9693 51.9293 68.929C52.0255 68.8954 52.1172 68.8437 52.2134 68.8102C52.5892 68.6397 52.9694 68.4873 53.3452 68.3168C53.5331 68.2316 53.721 68.1464 53.9157 68.0499C54.1036 67.9646 54.287 67.8614 54.4749 67.7761C55.2289 67.4059 55.9807 66.9883 56.7348 66.5413C57.4889 66.0944 58.2274 65.6226 58.9594 65.0854C59.6847 64.5595 60.4012 63.9974 61.0932 63.3743C61.2745 63.2237 61.4336 63.0594 61.6038 62.902C61.774 62.7445 61.9331 62.5803 62.11 62.4115C62.2691 62.2473 62.4348 62.0718 62.5939 61.9075C62.6768 61.8198 62.753 61.7432 62.8359 61.6555C62.9188 61.5677 63.0016 61.48 63.0734 61.3854C63.6963 60.6743 64.2926 59.9314 64.8398 59.1433C64.9721 58.9474 65.1223 58.7471 65.2546 58.5512C65.3758 58.3485 65.5148 58.1413 65.636 57.9386C65.9074 57.5355 66.1342 57.1053 66.3721 56.6818C66.5 56.4679 66.5988 56.2516 66.7156 56.0308C66.8256 55.8213 66.9312 55.5938 67.0479 55.373C67.1468 55.1567 67.2524 54.9292 67.3468 54.6948L67.5019 54.3591L67.5378 54.2735L67.5738 54.1879L67.6457 54.0166C67.7402 53.7823 67.8279 53.5592 67.9223 53.3249L67.9942 53.1536C68.0167 53.0905 68.0325 53.0387 68.055 52.9756L68.1766 52.6195C68.2531 52.3896 68.3364 52.1485 68.413 51.9186C68.4784 51.6819 68.5505 51.4339 68.6159 51.1973L68.7196 50.8457C68.7467 50.7239 68.7738 50.6022 68.8009 50.4805C68.8552 50.237 68.9094 49.9935 68.9637 49.75C68.9908 49.6283 69.0179 49.5065 69.0339 49.378L69.1041 49.006L69.1743 48.634L69.206 48.4536C69.2106 48.395 69.222 48.3251 69.2266 48.2665C69.2585 48.0094 69.2949 47.7704 69.3268 47.5133C69.3428 47.3848 69.3699 47.2631 69.368 47.139L69.398 46.7578C69.4121 46.5052 69.4373 46.2594 69.458 45.9956C69.4721 45.743 69.4861 45.4904 69.489 45.231C69.505 44.2114 69.4518 43.1805 69.3114 42.1425C69.1643 41.1158 68.9301 40.0821 68.5595 39.0728C68.1889 38.0636 67.7043 37.0924 67.0675 36.1975C67.0252 36.141 66.9829 36.0845 66.9518 36.0347L66.8248 35.8652C66.7402 35.7522 66.66 35.6573 66.5754 35.5443C66.3994 35.3295 66.1944 35.1125 65.9715 34.8999C65.7486 34.6872 65.4788 34.4768 65.1709 34.3045C64.8697 34.1211 64.5193 33.969 64.1285 33.8845C63.7667 33.8024 63.3713 33.7766 62.9645 33.8206C62.5689 33.8715 62.191 33.9946 61.8554 34.1742C61.5198 34.3537 61.2399 34.5673 60.9936 34.8013C60.7472 35.0352 60.541 35.2783 60.3571 35.535C59.9961 36.0371 59.7446 36.5597 59.5332 37.0915C59.3397 37.6189 59.1864 38.1553 59.0956 38.7145C59.0729 38.8543 59.0502 38.9941 59.0275 39.1339L59.0138 39.2331L59.0069 39.321L58.9863 39.5082L58.9563 39.8894L58.933 40.2592C58.9238 40.3765 58.919 40.5118 58.9098 40.6291L58.8976 41.0058C58.8836 41.2584 58.8874 41.5065 58.8913 41.7546C58.8999 42.7584 58.9666 43.7669 59.116 44.7643C59.2654 45.7617 59.4864 46.7412 59.8035 47.6872C61.016 51.5137 63.7961 54.8052 67.3674 56.2896C69.144 57.0341 71.0673 57.2534 72.8709 57.0618C73.7783 56.9694 74.648 56.7619 75.4754 56.4978C76.3028 56.2338 77.1013 55.8907 77.8329 55.5069C79.3252 54.7416 80.6459 53.7796 81.8014 52.763C82.9637 51.7351 83.9853 50.637 84.8574 49.5091C84.9672 49.3763 85.0726 49.2255 85.1824 49.0927C85.2407 49.0207 85.2811 48.9531 85.3394 48.8811C85.3865 48.8022 85.438 48.7415 85.4852 48.6626C85.5838 48.523 85.6825 48.3834 85.7811 48.2438C85.8798 48.1042 85.9785 47.9646 86.066 47.8183C86.2522 47.5323 86.4316 47.2575 86.6111 46.9828C86.7794 46.7013 86.9477 46.4197 87.1159 46.1382C87.7645 45.0278 88.3125 43.933 88.7798 42.8966C88.8877 42.6397 89.0024 42.3716 89.1103 42.1147C89.2182 41.8578 89.3082 41.6054 89.4094 41.3598C89.4544 41.2336 89.5105 41.1142 89.5555 40.988C89.6005 40.8618 89.6388 40.7469 89.6838 40.6207C89.7671 40.3795 89.8504 40.1384 89.927 39.9085C90.2287 38.9709 90.4834 38.1122 90.6575 37.3118C90.7027 37.1089 90.7523 36.9241 90.7908 36.7325C90.8292 36.5408 90.861 36.3605 90.9039 36.1869C90.9356 36.0065 90.9718 35.8442 90.9968 35.6751C91.0329 35.5128 91.0579 35.3437 91.0762 35.1858C91.1056 35.0348 91.1239 34.8769 91.1466 34.7371C91.1693 34.5973 91.192 34.4575 91.1968 34.3222C91.2288 34.0651 91.254 33.8193 91.2769 33.6028C91.2998 33.3864 91.3092 33.1924 91.3163 33.0277C91.3234 32.8631 91.3282 32.7278 91.3263 32.6037C91.3202 32.3849 91.3115 32.2721 91.2781 32.2517C91.249 32.2493 91.1996 32.3575 91.1365 32.5649C91.1049 32.6685 91.0711 32.8015 91.0349 32.9638C90.9988 33.1262 90.967 33.3065 90.904 33.5139C90.8587 33.7168 90.7934 33.9535 90.7324 34.2082C90.6985 34.3412 90.6647 34.4742 90.6308 34.6072C90.597 34.7402 90.5564 34.8845 90.5202 35.0468C90.4796 35.191 90.4435 35.3533 90.3962 35.5089C90.3488 35.6644 90.3059 35.838 90.2519 36.0047C90.1979 36.1715 90.155 36.3451 90.1053 36.5299C90.0445 36.708 89.9949 36.8928 89.9274 37.0821C89.6864 37.8417 89.3871 38.6732 89.0363 39.5656C88.9486 39.7887 88.8497 40.005 88.7553 40.2393C88.7059 40.3475 88.6609 40.4737 88.6114 40.5818C88.5553 40.7012 88.5058 40.8094 88.4497 40.9288C88.3374 41.1676 88.2429 41.4019 88.1238 41.652C88.0115 41.8908 87.8813 42.1341 87.7623 42.3842C87.2637 43.3709 86.6802 44.398 86.0139 45.4361C85.8412 45.6996 85.6752 45.9518 85.4958 46.2265C85.3119 46.4832 85.1213 46.7511 84.9375 47.0078C84.5518 47.5256 84.1527 48.0659 83.7158 48.5678C82.8574 49.5965 81.8605 50.6022 80.7433 51.5038C79.6305 52.4235 78.3905 53.2504 77.0304 53.8965C75.6703 54.5427 74.1899 55.008 72.6546 55.1326C71.8903 55.1893 71.115 55.1625 70.3534 55.0364C70.1569 55.0089 69.9738 54.9588 69.784 54.9199C69.6857 54.9061 69.5941 54.8811 69.5026 54.856C69.411 54.831 69.3195 54.8059 69.2168 54.7741C69.0226 54.7172 68.8462 54.6558 68.6587 54.5877C68.4779 54.5083 68.2904 54.4401 68.1096 54.3607C66.6701 53.7141 65.3544 52.6821 64.3097 51.4004C63.7818 50.7562 63.3166 50.058 62.9253 49.3126C62.5339 48.5672 62.2164 47.7747 61.966 46.9462C61.4764 45.296 61.2597 43.5202 61.2955 41.7293C61.3073 41.506 61.3011 41.2872 61.3196 41.0526C61.3313 40.8293 61.3431 40.6061 61.366 40.3896L61.3981 40.0558L61.4302 39.7221L61.4552 39.553L61.4621 39.465L61.4735 39.3951C61.4871 39.2959 61.5008 39.1967 61.5256 39.1043C61.6025 38.721 61.7153 38.3288 61.8659 37.975C62.0053 37.6145 62.1894 37.2811 62.3979 37.0087C62.6064 36.7363 62.8258 36.5474 63.0026 36.4554C63.0876 36.415 63.1658 36.3859 63.2418 36.3861C63.3308 36.5171 63.418 36.5241 63.5095 36.5492C63.5899 36.5674 63.6859 36.6105 63.7863 36.6717C63.8867 36.7329 64.0071 36.8369 64.1274 36.941C64.2411 37.0563 64.3703 37.1965 64.4928 37.348L64.6777 37.5988L64.7734 37.7186C64.8113 37.7571 64.8313 37.8 64.8625 37.8497C65.7841 39.21 66.325 40.8761 66.5285 42.5977C66.6357 43.4619 66.6603 44.3372 66.6313 45.2259C66.6195 45.4491 66.6078 45.6724 66.6028 45.8844C66.5799 46.1009 66.5503 46.3287 66.5385 46.552L66.5064 46.8857C66.4972 47.003 66.4768 47.1135 66.4631 47.2127C66.4223 47.4336 66.3994 47.6501 66.3587 47.8711C66.3541 47.9297 66.3383 47.9815 66.3337 48.0402L66.2752 48.1889L66.2029 48.5135L66.1306 48.8382C66.1102 48.9486 66.0898 49.0591 66.0582 49.1628C66.0063 49.3769 65.9544 49.5911 65.9024 49.8053C65.8709 49.9089 65.8505 50.0194 65.8189 50.1231L65.7243 50.4341C65.6612 50.6415 65.5981 50.8489 65.5283 51.0675C65.4652 51.2748 65.3843 51.4867 65.31 51.6872L65.2221 51.987C65.2063 52.0389 65.1906 52.0907 65.1636 52.1357L65.1052 52.2845C65.0242 52.4963 64.9499 52.6969 64.8645 52.8906L64.8061 53.0393L64.7768 53.1137L64.7476 53.1881L64.6128 53.49C64.5274 53.6838 64.4241 53.882 64.3387 54.0758C64.2421 54.2627 64.1389 54.461 64.0423 54.6479C63.9458 54.8349 63.8425 55.0331 63.7348 55.2133C63.5126 55.5849 63.3084 55.9521 63.0706 56.2988C62.9518 56.4722 62.8441 56.6524 62.7252 56.8258C62.6064 56.9992 62.4763 57.1657 62.3575 57.3391C61.8709 58.0259 61.3241 58.6605 60.7796 59.2659C60.7146 59.3492 60.6451 59.4145 60.569 59.491C60.4928 59.5674 60.4234 59.6327 60.3584 59.716C60.2128 59.8577 60.0784 60.0062 59.9328 60.148C59.7872 60.2897 59.6304 60.4246 59.4848 60.5664C59.3392 60.7081 59.1936 60.8498 59.0325 60.9667C58.4122 61.4952 57.7831 61.9876 57.134 62.437C56.4781 62.8977 55.809 63.3043 55.1288 63.704C54.4552 64.0925 53.7661 64.4562 53.0682 64.7837C52.8981 64.8645 52.7281 64.9452 52.5402 65.0305C52.3702 65.1112 52.189 65.1852 52.019 65.266C51.6746 65.4094 51.3301 65.5529 50.9857 65.6964C50.9006 65.7368 50.8156 65.7771 50.7262 65.7995C50.6412 65.8398 50.5518 65.8622 50.4668 65.9026C50.2923 65.9653 50.1179 66.028 49.9546 66.0975C49.7801 66.1602 49.6057 66.2229 49.4424 66.2924C49.2747 66.3439 49.1003 66.4066 48.9326 66.458C48.7649 66.5095 48.5904 66.5722 48.4227 66.6236C48.3444 66.6527 48.255 66.6751 48.17 66.7155C48.0917 66.7446 48.0023 66.7669 47.9128 66.7892C47.5663 66.8853 47.2376 66.9769 46.9022 67.0798L46.777 67.1111L46.6518 67.1424C46.5623 67.1647 46.4908 67.1825 46.4014 67.2049C46.2404 67.2451 46.0615 67.2897 45.9005 67.3299C45.7396 67.3701 45.5674 67.4035 45.4064 67.4437C45.2343 67.477 45.0801 67.506 44.9079 67.5394C44.747 67.5795 44.5816 67.6017 44.4206 67.6419C44.3379 67.6529 44.2596 67.6821 44.1769 67.6931C44.0942 67.7042 44.0159 67.7333 43.9332 67.7444C43.6136 67.7954 43.2939 67.8465 42.9743 67.8975C42.6547 67.9486 42.3417 67.9884 42.0288 68.0282C41.8813 68.0458 41.7159 68.068 41.5684 68.0856C41.4209 68.1033 41.2555 68.1254 41.1147 68.1318C40.8085 68.1604 40.5091 68.1776 40.214 68.213C40.1381 68.2128 40.0665 68.2306 39.9906 68.2304C39.9146 68.2302 39.8431 68.2481 39.7671 68.2479C39.6263 68.2543 39.4676 68.2652 39.3269 68.2716C39.0453 68.2844 38.7458 68.3017 38.4643 68.3145C38.1894 68.316 37.9079 68.3288 37.633 68.3303C37.0878 68.3515 36.5583 68.3208 36.0444 68.315C33.9979 68.251 32.2557 68.0345 30.853 67.8098C30.6744 67.7778 30.5069 67.7525 30.3393 67.7273C30.259 67.709 30.1718 67.702 30.0914 67.6838C30.0111 67.6655 29.9307 67.6473 29.8614 67.6358C29.551 67.5696 29.2741 67.5238 29.0038 67.4667C28.8721 67.4325 28.7448 67.4164 28.6242 67.389C28.5036 67.3616 28.3942 67.341 28.2915 67.3092C28.0793 67.2568 27.8784 67.2111 27.7176 67.1746C27.5456 67.1313 27.3849 67.0948 27.2129 67.0515C27.041 67.0082 26.8869 66.9604 26.715 66.9171C26.5431 66.8738 26.389 66.8261 26.2171 66.7828L25.9715 66.7099C25.8911 66.6917 25.8063 66.6554 25.7259 66.6371C25.3999 66.5461 25.0806 66.4437 24.7614 66.3414C24.6073 66.2936 24.4421 66.2391 24.2881 66.1913C24.134 66.1435 23.9688 66.089 23.8215 66.0299C23.6675 65.9822 23.5134 65.9344 23.3661 65.8754C23.212 65.8276 23.0647 65.7686 22.9174 65.7095C22.616 65.6027 22.3214 65.4847 22.02 65.3779C21.7254 65.2598 21.4419 65.1486 21.1473 65.0305L20.7165 64.8602C20.5691 64.8012 20.4397 64.7377 20.3035 64.6855C18.0805 63.7459 16.1436 62.7348 14.5506 61.8104C14.4502 61.7492 14.3431 61.6993 14.2539 61.645C14.1535 61.5838 14.0642 61.5294 13.9638 61.4683C13.7854 61.3595 13.5957 61.244 13.4105 61.1465C13.0469 60.9403 12.7189 60.7252 12.3955 60.5281C12.2393 60.433 12.0831 60.3378 11.9381 60.2495C11.86 60.2019 11.7931 60.1611 11.7262 60.1203C11.6593 60.0796 11.5923 60.0388 11.5142 59.9912C11.2465 59.8281 10.99 59.6718 10.7601 59.5472C10.7044 59.5132 10.6486 59.4792 10.5861 59.4565C10.5303 59.4225 10.4857 59.3953 10.4299 59.3613C10.3295 59.3002 10.2224 59.2503 10.1332 59.1959C9.94798 59.0984 9.77834 59.0258 9.64218 58.9736C9.34081 58.8668 9.13752 58.8505 9.05463 58.9382Z" fill="white"/>
<path d="M16.7266 66.548C17.4181 66.9694 18.1343 67.375 18.8819 67.7536C18.9265 67.7808 18.989 67.8035 19.0337 67.8307C19.1229 67.8851 19.23 67.935 19.326 67.9781L19.7768 68.1913C19.8616 68.2276 19.9576 68.2707 20.0356 68.3183C20.2499 68.4181 20.4753 68.5247 20.6895 68.6245C21.0065 68.7561 21.3234 68.8878 21.6404 69.0194C21.7029 69.0422 21.7587 69.0761 21.8212 69.0989C21.9283 69.1488 22.0421 69.1874 22.1381 69.2305C22.3033 69.2851 22.4729 69.3577 22.6382 69.4123C22.7743 69.4645 22.9105 69.5167 23.0467 69.569L23.1315 69.6053C23.1717 69.6144 23.194 69.628 23.2342 69.6371C23.3703 69.6893 23.5065 69.7416 23.6494 69.7825L24.0713 69.9167C24.2767 69.9804 24.4933 70.0509 24.6987 70.1146C24.7277 70.1169 24.7612 70.1373 24.7902 70.1396C24.8416 70.1556 24.9041 70.1783 24.9666 70.201L25.2234 70.2806C25.3953 70.3239 25.5605 70.3785 25.7436 70.4286L25.7659 70.4422C25.949 70.4923 26.1321 70.5424 26.304 70.5857C26.4246 70.613 26.5452 70.6404 26.6658 70.6678C26.7283 70.6905 26.7864 70.6952 26.8556 70.7066L27.4808 70.8571C27.5612 70.8754 27.6416 70.8936 27.7332 70.9187L27.8538 70.9461C27.9342 70.9643 28.0324 70.9781 28.1128 70.9964C28.1642 71.0123 28.2111 71.0102 28.2625 71.0261C28.43 71.0513 28.6019 71.0946 28.7917 71.1335L29.2004 71.2135C29.2295 71.2158 29.2585 71.2181 29.292 71.2385C29.3433 71.2544 29.4014 71.2591 29.4595 71.2638C29.5466 71.2708 29.6381 71.2958 29.7253 71.3028C29.9039 71.3348 30.0893 71.3556 30.2792 71.3945C31.1569 71.5298 31.9901 71.638 32.8546 71.7192C33.8822 71.8075 34.9232 71.8734 35.9443 71.8963C36.0493 71.8988 36.1543 71.9014 36.266 71.8927C36.7218 71.8938 37.1888 71.9018 37.6692 71.8873L37.9731 71.888C38.172 71.8863 38.3776 71.8733 38.5764 71.8716C38.8289 71.8564 39.0815 71.8413 39.334 71.8261L39.5105 71.8108C39.5865 71.811 39.6692 71.7999 39.7452 71.8001C39.8211 71.8003 39.9039 71.7893 39.9798 71.7895C40.0558 71.7897 40.1385 71.7786 40.2212 71.7675C40.3039 71.7565 40.3799 71.7567 40.4625 71.7456L40.7643 71.699C40.9878 71.6815 41.218 71.6528 41.4415 71.6353C41.5711 71.6222 41.7007 71.6089 41.8371 71.5845C41.8729 71.5756 41.9019 71.5779 41.9377 71.569C42.0025 71.5624 42.0852 71.5513 42.15 71.5447C42.2506 71.5292 42.3512 71.5136 42.4518 71.4981C42.5345 71.487 42.6172 71.476 42.7066 71.4537C42.9547 71.4205 43.2207 71.3828 43.4755 71.3383C43.6767 71.3073 43.8846 71.265 44.0858 71.2339L44.5239 71.1629C44.6066 71.1518 44.6893 71.1407 44.7854 71.1071C44.8749 71.0848 44.9576 71.0738 45.047 71.0514C45.1186 71.0336 45.2013 71.0225 45.2728 71.0046C45.3801 70.9778 45.4807 70.9623 45.588 70.9355L46.129 70.8196C46.2542 70.7884 46.3862 70.7459 46.5225 70.7214L46.6656 70.6857L47.209 70.5404C47.2984 70.5181 47.3878 70.4958 47.484 70.4622L47.6271 70.4265L47.759 70.384L47.9446 70.3281C48.2442 70.2341 48.555 70.1469 48.8726 70.0485C48.9083 70.0396 48.9441 70.0306 48.9687 70.0149C49.0224 70.0015 49.0939 69.9837 49.1543 69.959L49.2259 69.9411C49.2974 69.9233 49.3578 69.8986 49.4361 69.8695L49.5725 69.845C49.7111 69.7913 49.8542 69.7556 49.9929 69.7018C50.1852 69.6346 50.3708 69.5787 50.552 69.5047L50.6302 69.4756C50.7868 69.4173 50.9501 69.3478 51.1178 69.2964L51.3526 69.209C51.4667 69.171 51.5763 69.1149 51.6903 69.0768L51.9677 68.9693C52.0281 68.9446 52.0885 68.9199 52.1489 68.8953C52.1846 68.8864 52.2092 68.8706 52.2518 68.8504C52.4508 68.772 52.6454 68.6755 52.8445 68.5971C53.0257 68.5231 53.2136 68.4379 53.3836 68.3571L53.954 68.0902C54.0637 68.034 54.1666 67.9892 54.2762 67.9331C54.3612 67.8927 54.4283 67.8568 54.5133 67.8164C55.2919 67.4305 56.0548 67.0196 56.7664 66.5929C57.5229 66.1166 58.2749 65.6223 58.9688 65.1234C59.7187 64.5817 60.4307 64.0016 61.1025 63.4123C61.2525 63.2886 61.3981 63.1469 61.5437 63.0052C61.5751 62.9782 61.5885 62.9557 61.6199 62.9287C61.7901 62.7712 61.9424 62.6182 62.1126 62.4608L62.1261 62.4382C62.2269 62.346 62.3411 62.2313 62.4375 62.121C62.489 62.0602 62.5517 62.0062 62.6033 61.9455L62.7175 61.8307C62.7623 61.7812 62.8071 61.7317 62.8452 61.6935C62.8698 61.6777 62.89 61.644 62.9146 61.6282C62.9662 61.5675 63.0356 61.5022 63.0872 61.4414C63.8334 60.5749 64.3781 59.8929 64.8535 59.1993C64.8939 59.1318 64.9455 59.071 64.9859 59.0034C65.0778 58.8751 65.1765 58.7355 65.2572 58.6004L65.6565 57.9833C65.8494 57.6861 66.0268 57.364 66.2018 57.0712C66.2691 56.9586 66.3253 56.8392 66.3858 56.7378C66.4734 56.5915 66.5565 56.427 66.6328 56.2738C66.6597 56.2288 66.6822 56.1657 66.7159 56.1094C66.919 56.2024 67.1332 56.3022 67.3363 56.3952C68.2024 56.7538 69.129 57.0111 70.0783 57.1286C70.9918 57.255 71.9146 57.2642 72.8399 57.1673C73.2757 57.1256 73.7205 57.0433 74.1721 56.9497C74.5879 56.8651 75.0128 56.7398 75.4443 56.6034C76.236 56.3483 77.0278 56.0165 77.8019 55.6124C78.5089 55.2443 79.2205 54.8176 79.9077 54.3299C80.5322 53.8961 81.168 53.3925 81.7771 52.8572C82.8946 51.8789 83.9162 50.7808 84.8331 49.6034C84.9183 49.4863 85.0079 49.3873 85.0931 49.2702C85.1133 49.2365 85.1447 49.2095 85.1648 49.1757L85.1985 49.1194C85.2433 49.0699 85.277 49.0136 85.3218 48.9641C85.3689 48.8852 85.4205 48.8245 85.4676 48.7456C85.5528 48.6286 85.6447 48.5002 85.7188 48.3763L85.7524 48.3201C85.7726 48.2863 85.7928 48.2525 85.8242 48.2255C85.9026 48.1197 85.97 48.0071 86.0484 47.9012C86.1023 47.8112 86.174 47.7166 86.2279 47.6265C86.3535 47.4419 86.4679 47.2504 86.5935 47.0658L87.0984 46.2212C87.6998 45.1897 88.2589 44.1016 88.7623 42.9796C88.8702 42.7227 88.9848 42.4546 89.0927 42.1977C89.1646 42.0265 89.2298 41.8665 89.2839 41.6997C89.3199 41.6141 89.3558 41.5285 89.3918 41.4428L89.538 41.071L89.5514 41.0485C89.5897 40.9336 89.628 40.8186 89.6774 40.7105L89.7517 40.5099C89.8124 40.3319 89.8665 40.1651 89.9317 40.0051C90.2717 38.9526 90.5062 38.1276 90.6622 37.4084C90.6826 37.298 90.7141 37.1943 90.7345 37.0838L90.7955 36.8291C90.8226 36.7073 90.8453 36.5675 90.8657 36.4571C90.8815 36.4052 90.8861 36.3466 90.8975 36.2767L90.9904 35.7649C91.0108 35.6544 91.0311 35.5439 91.0515 35.4334C91.0562 35.3748 91.0652 35.3342 91.0698 35.2756C91.0902 35.1651 91.1039 35.0659 91.1175 34.9667L91.1402 34.8269C91.1629 34.6871 91.1856 34.5473 91.1904 34.412C91.2223 34.1549 91.2476 33.9091 91.2704 33.6926C91.2978 33.4942 91.3005 33.3115 91.3008 33.1581L91.3099 33.1175C91.317 32.9529 91.3218 32.8176 91.3199 32.6935C91.3249 32.4815 91.3051 32.3619 91.2828 32.3483C91.2538 32.3459 91.2043 32.4541 91.1412 32.6614C91.1097 32.7651 91.0758 32.8981 91.0397 33.0604C91.0239 33.1123 91.0193 33.1709 90.9968 33.234C90.9764 33.3445 90.9425 33.4775 90.9087 33.6105C90.8635 33.8134 90.7981 34.0501 90.7371 34.3048C90.71 34.4265 90.6761 34.5595 90.6355 34.7038C90.6017 34.8368 90.5611 34.9811 90.525 35.1434C90.5092 35.1952 90.4934 35.2471 90.4821 35.3169C90.4572 35.4094 90.4257 35.513 90.412 35.6123L90.3624 35.7971C90.3309 35.9008 90.2993 36.0045 90.2678 36.1081C90.2453 36.1712 90.2339 36.2411 90.2114 36.3042C90.1799 36.4079 90.1595 36.5184 90.1212 36.6333L89.9433 37.1855C89.7383 37.8594 89.4615 38.6279 89.0522 39.669C88.9645 39.8921 88.8656 40.1084 88.7712 40.3427C88.7217 40.4509 88.6791 40.5477 88.6408 40.6627L88.6206 40.6965L88.4588 41.0434C88.4452 41.1426 88.3981 41.2215 88.3621 41.3071C88.2925 41.449 88.2273 41.609 88.1509 41.7622C88.0386 42.001 87.9084 42.2443 87.7893 42.4944C87.2437 43.5599 86.6601 44.587 86.041 45.5463L85.5228 46.3367C85.4107 46.4988 85.2986 46.6609 85.1753 46.8163C85.1036 46.9108 85.0251 47.0166 84.9645 47.118C84.5856 47.6245 84.1865 48.1649 83.7428 48.678C82.8396 49.7562 81.8383 50.7438 80.7636 51.6253C80.1882 52.1043 79.5927 52.5403 79.0019 52.9177C78.3551 53.3379 77.7062 53.7106 77.0507 54.018C75.5631 54.7247 74.0985 55.1382 72.6749 55.2541C71.8927 55.3152 71.1242 55.2771 70.3738 55.1579C70.2464 55.1418 70.1147 55.1076 69.9762 55.0847C69.9249 55.0688 69.8556 55.0573 69.7975 55.0526C69.7172 55.0344 69.6368 55.0161 69.5631 54.9866C69.552 54.9798 69.5341 54.9843 69.5118 54.9707L69.3912 54.9433C69.3398 54.9274 69.2885 54.9115 69.2304 54.9068C69.1165 54.8682 69.0027 54.8295 68.9 54.7977C68.8263 54.7682 68.7459 54.7499 68.6723 54.7204L68.6098 54.6977C68.4513 54.6319 68.2928 54.566 68.1232 54.4934C67.9424 54.414 67.7572 54.3165 67.572 54.219L67.6305 54.0703L67.6889 53.9216C67.7609 53.7504 67.8284 53.5611 67.9003 53.3898L67.9722 53.2186C67.9813 53.178 68.0015 53.1442 68.0105 53.1036C68.024 53.0811 68.0196 53.063 68.033 53.0405L68.1546 52.6844C68.1838 52.6101 68.2086 52.5176 68.2379 52.4433C68.2852 52.2878 68.3436 52.139 68.391 51.9835L68.5939 51.2622L68.7043 50.8993C68.7224 50.8182 68.7405 50.737 68.7585 50.6559C68.7676 50.6153 68.7766 50.5747 68.7857 50.5341L68.8557 50.2388C68.8963 50.0946 68.919 49.9548 68.9595 49.8105C68.9844 49.7181 68.998 49.6189 69.0161 49.5377C69.0184 49.5084 69.0207 49.4791 69.0297 49.4385L69.1 49.0665L69.2019 48.5141C69.211 48.4735 69.22 48.433 69.2179 48.3856C69.2135 48.3675 69.2269 48.345 69.2292 48.3157C69.2612 48.0586 69.2975 47.8196 69.3295 47.5625C69.3385 47.522 69.3364 47.4746 69.3454 47.434C69.3635 47.3528 69.3637 47.2761 69.3706 47.1882L69.4006 46.8071C69.4078 46.6424 69.4328 46.4733 69.4466 46.2974L69.4607 46.0448C69.4609 45.9681 69.461 45.8914 69.4724 45.8215C69.4862 45.6456 69.489 45.4629 69.4917 45.2802C69.4974 44.7614 69.4921 44.2358 69.4665 43.744C69.4432 43.2229 69.3909 42.6994 69.314 42.1917C69.2394 41.6546 69.1402 41.1333 69.0208 40.6458C68.8925 40.1222 68.7464 39.603 68.5621 39.122C68.1716 38.0699 67.669 37.1031 67.0701 36.2467C67.0278 36.1902 66.9855 36.1337 66.9544 36.084L66.8275 35.9145C66.8007 35.8828 66.774 35.8512 66.7584 35.8263C66.7005 35.7449 66.6359 35.6749 66.578 35.5935C66.353 35.3335 66.1703 35.13 65.9741 34.9491C65.7289 34.7229 65.4747 34.5373 65.2293 34.3877C65.2181 34.3809 65.1958 34.3674 65.1847 34.3606C64.8612 34.1635 64.504 34.0227 64.1423 33.9406C63.7515 33.8561 63.356 33.8303 62.9783 33.8767C62.6006 33.923 62.2115 34.0393 61.8692 34.2302C61.5649 34.3828 61.2672 34.6008 60.9962 34.8505C60.7744 35.0687 60.5571 35.305 60.3598 35.5842C60.0368 36.048 59.763 36.5571 59.5358 37.1407C59.3356 37.6793 59.189 38.2045 59.0982 38.7637C59.0732 38.9328 59.0572 39.0614 59.0301 39.1831L59.0165 39.2823L58.989 39.5574L58.9478 39.9318L58.9245 40.3017C58.9266 40.349 58.9176 40.3896 58.9197 40.437C58.9195 40.5137 58.9126 40.6016 58.9057 40.6896L58.8935 41.0662C58.8797 41.2421 58.8837 41.4136 58.8877 41.585C58.8875 41.6617 58.8874 41.7384 58.8872 41.8151C58.8891 42.8302 58.9669 43.8454 59.1119 44.8248C59.2657 45.8402 59.4978 46.8266 59.7994 47.7477C59.99 48.3707 60.2342 48.9804 60.5209 49.5699C60.2453 48.9872 60.0078 48.3663 59.7994 47.7477C59.4978 46.8266 59.2657 45.8402 59.1119 44.8248C58.9669 43.8454 58.8891 42.8302 58.8872 41.8151C58.8874 41.7384 58.8875 41.6617 58.8877 41.585C58.8837 41.4136 58.8864 41.2309 58.8935 41.0662L58.9057 40.6896C58.9058 40.6129 58.9128 40.5249 58.9197 40.437C58.9176 40.3896 58.9266 40.349 58.9245 40.3017L58.9478 39.9318L59.0165 39.2823L59.0301 39.1831C59.0394 39.0658 59.0621 38.926 59.0982 38.7637C59.2002 38.2113 59.3356 37.6793 59.5358 37.1407C59.763 36.5571 60.0145 36.0345 60.3486 35.5774C60.5459 35.2982 60.7521 35.0551 60.985 34.8437C61.256 34.594 61.547 34.3872 61.8469 34.2166C62.2004 34.0325 62.5783 33.9095 62.956 33.8631C63.3337 33.8167 63.718 33.8357 64.12 33.927C64.4817 34.0091 64.8389 34.1499 65.1623 34.347C65.4301 34.5101 65.7066 34.7093 65.9741 34.9491C66.1703 35.13 66.3642 35.3403 66.578 35.5935C66.6359 35.6749 66.7005 35.7449 66.7584 35.8263C66.774 35.8512 66.8007 35.8828 66.8275 35.9145L66.9544 36.084C66.9967 36.1405 67.0278 36.1902 67.059 36.2399C67.6758 37.0919 68.1827 38.0766 68.5621 39.122C68.7464 39.603 68.8925 40.1222 69.0208 40.6458C69.1402 41.1333 69.2394 41.6546 69.314 42.1917C69.3798 42.6926 69.4321 43.2161 69.4665 43.744C69.4921 44.2358 69.4974 44.7614 69.4917 45.2802C69.489 45.4629 69.4751 45.6388 69.4724 45.8215C69.461 45.8914 69.4609 45.9681 69.4607 46.0448L69.4466 46.2974C69.4395 46.462 69.4033 46.6244 69.3962 46.789L69.3662 47.1701C69.3593 47.2581 69.3479 47.328 69.341 47.4159C69.332 47.4565 69.3341 47.5039 69.325 47.5445C69.2998 47.7903 69.2567 48.0406 69.2248 48.2976C69.2292 48.3157 69.2158 48.3382 69.2135 48.3675C69.2044 48.4081 69.2065 48.4555 69.1975 48.4961L69.1657 48.6764L69.0955 49.0484L69.0297 49.4385C69.0207 49.4791 69.0184 49.5084 69.0161 49.5377C68.9913 49.6301 68.9844 49.7181 68.9595 49.8105C68.919 49.9548 68.8963 50.0946 68.8557 50.2388L68.7857 50.5341C68.7766 50.5747 68.7676 50.6153 68.7585 50.6559C68.7405 50.737 68.7224 50.8182 68.7043 50.8993L68.6006 51.251L68.3977 51.9723C68.3504 52.1278 68.2963 52.2946 68.2379 52.4433C68.2086 52.5176 68.1838 52.6101 68.1546 52.6844L68.033 53.0405C68.0196 53.063 68.024 53.0811 68.0105 53.1036C68.0015 53.1442 67.988 53.1667 67.979 53.2073L67.907 53.3785C67.8351 53.5498 67.7609 53.7504 67.6889 53.9216L67.6305 54.0703L67.572 54.219C66.6794 53.7521 65.8365 53.1002 65.0832 52.3494L65.1057 52.2863L65.1641 52.1376C65.1843 52.1038 65.1866 52.0745 65.1957 52.0339C65.2024 52.0226 65.2047 51.9933 65.2115 51.9821L65.3172 51.6778C65.3465 51.6035 65.3757 51.5291 65.3938 51.4479C65.4388 51.3217 65.4905 51.1843 65.5356 51.0581L65.5379 51.0287C65.601 50.8214 65.6573 50.6253 65.7137 50.4292L65.8083 50.1182C65.8308 50.0551 65.8421 49.9852 65.8535 49.9153C65.8625 49.8747 65.8716 49.8341 65.8806 49.7935L65.9235 49.6199C65.9597 49.4576 66.007 49.3021 66.0364 49.151C66.0545 49.0699 66.0726 48.9887 66.0907 48.9076C66.093 48.8783 66.1064 48.8557 66.1088 48.8264L66.1811 48.5018L66.2784 48.008C66.2874 47.9675 66.2897 47.9382 66.2988 47.8976C66.2944 47.8795 66.3078 47.857 66.3034 47.8389L66.4079 47.1805C66.4169 47.14 66.4259 47.0994 66.4282 47.0701C66.4396 47.0002 66.4509 46.9303 66.4623 46.8604L66.4944 46.5266C66.5173 46.3101 66.5469 46.0824 66.5587 45.8591C66.5589 45.7824 66.5702 45.7125 66.5771 45.6246C66.582 45.4892 66.5935 45.3426 66.605 45.1961C66.6297 44.2893 66.6118 43.4028 66.5022 42.5679C66.3972 41.6744 66.2117 40.8393 65.9455 40.0626C65.6594 39.2431 65.2926 38.482 64.8474 37.8267C64.8274 37.7838 64.7895 37.7453 64.7584 37.6956L64.6626 37.5758L64.4778 37.325C64.3397 37.1486 64.2216 37.0153 64.1124 36.918C63.9876 36.7959 63.8716 36.7099 63.7712 36.6487C63.76 36.6419 63.7489 36.6351 63.7489 36.6351C63.6708 36.5875 63.586 36.5512 63.4944 36.5262C63.4029 36.5011 63.3158 36.4941 63.2331 36.5052C63.1504 36.5162 63.0788 36.5341 62.9938 36.5745C62.8059 36.6597 62.5797 36.8599 62.3891 37.1278C62.1874 37.389 62.0033 37.7223 61.8571 38.0941C61.711 38.466 61.5871 38.8514 61.5169 39.2234C61.4988 39.3045 61.4784 39.415 61.4648 39.5142L61.4534 39.5841L61.4282 39.8299L61.4117 40.1885L61.3795 40.5223C61.3634 40.7275 61.3405 40.944 61.3422 41.1448L61.3443 41.1921C61.3328 41.3387 61.3324 41.4921 61.332 41.6455C61.3318 41.7222 61.3316 41.7989 61.327 41.8575C61.3091 42.753 61.3492 43.6531 61.4633 44.5061C61.575 45.3883 61.7582 46.2527 62.0042 47.0631C62.2523 47.9209 62.5809 48.7203 62.9634 49.4296C63.3548 50.175 63.82 50.8732 64.3479 51.5174C64.5885 51.8023 64.847 52.0826 65.1011 52.345L64.8651 52.8925L64.7774 53.1156L64.6021 53.485L64.3281 54.0708C64.2719 54.1902 64.2113 54.2916 64.1551 54.411C64.108 54.4898 64.0788 54.5642 64.0317 54.643C63.998 54.6993 63.9755 54.7624 63.9418 54.8187C63.8789 54.9494 63.7982 55.0845 63.7241 55.2084C63.6568 55.321 63.5962 55.4223 63.5356 55.5237C63.3808 55.7827 63.2371 56.0485 63.06 56.2939L62.7146 56.8208C62.6361 56.9266 62.5576 57.0325 62.4791 57.1383C62.4276 57.1991 62.3872 57.2666 62.3357 57.3274C61.8043 58.0636 61.2126 58.7478 60.7578 59.2542C60.7062 59.3149 60.6614 59.3645 60.6054 59.4072C60.5808 59.4229 60.5674 59.4454 60.536 59.4724C60.4666 59.5376 60.4083 59.6097 60.3389 59.6749L60.3254 59.6974C60.2739 59.7582 60.2179 59.8009 60.1664 59.8617C60.0767 59.9607 59.9827 60.0417 59.8931 60.1407C59.7475 60.2824 59.5907 60.4174 59.4451 60.5591C59.4138 60.5861 59.3892 60.6018 59.369 60.6356C59.2547 60.7503 59.1293 60.8583 59.0039 60.9662C58.4083 61.479 57.7613 61.9758 57.1054 62.4365C56.4742 62.8815 55.7984 63.2993 55.1002 63.7036C54.4513 64.0763 53.7622 64.44 53.0396 64.7832L52.5117 65.03C52.3417 65.1108 52.1784 65.1803 52.0084 65.261L51.9905 65.2655C51.7422 65.3754 51.5006 65.474 51.2591 65.5726L50.9571 65.6959C50.9213 65.7048 50.8967 65.7205 50.8721 65.7363C50.8117 65.7609 50.7692 65.7811 50.7088 65.8058L50.6127 65.8394C50.559 65.8528 50.4986 65.8774 50.4561 65.8976L49.9439 66.0925C49.841 66.1374 49.727 66.1754 49.6241 66.2203L49.4318 66.2875C49.2998 66.33 49.1679 66.3725 49.036 66.415L48.904 66.4575C48.7363 66.509 48.5619 66.5717 48.3942 66.6231C48.3226 66.641 48.2622 66.6657 48.1907 66.6835L48.137 66.6969C48.0834 66.7103 48.0297 66.7237 47.9693 66.7484C47.9335 66.7573 47.9089 66.773 47.8799 66.7707C47.5333 66.8668 47.1979 66.9697 46.8692 67.0613L46.744 67.0926L46.6188 67.1238C46.5294 67.1461 46.4578 67.164 46.3684 67.1863C46.2432 67.2176 46.118 67.2488 45.9816 67.2733L45.6954 67.3447C45.5881 67.3715 45.4808 67.3983 45.3623 67.4183L45.1544 67.4606C45.0538 67.4762 44.9644 67.4985 44.8638 67.514C44.7029 67.5542 44.5375 67.5763 44.3765 67.6165L44.1328 67.6678C44.0434 67.6901 43.9607 67.7012 43.8959 67.7078C43.7126 67.7344 43.5226 67.7722 43.3393 67.7988L42.9369 67.8609C42.7 67.9009 42.4698 67.9297 42.2395 67.9584C42.1568 67.9694 42.0741 67.9805 41.9914 67.9916C41.8797 68.0003 41.7791 68.0158 41.6606 68.0358L41.531 68.049C41.4952 68.058 41.4662 68.0556 41.4304 68.0646C41.312 68.0846 41.1891 68.0865 41.0706 68.1065L40.9879 68.1176C40.7108 68.1484 40.4403 68.168 40.1699 68.1876C40.123 68.1898 40.0872 68.1987 40.0403 68.2008L39.9464 68.2051C39.8637 68.2162 39.7989 68.2227 39.723 68.2225C39.5822 68.229 39.4235 68.2398 39.2827 68.2462L39.2358 68.2484C38.9543 68.2612 38.6838 68.2808 38.4202 68.2891L38.1163 68.2883C37.9353 68.2856 37.7655 68.2897 37.5845 68.287C37.151 68.2994 36.731 68.2893 36.3288 68.2747C36.2238 68.2722 36.1076 68.2628 35.9959 68.2716C34.2644 68.2152 32.5645 68.0552 30.8045 67.7664L30.2908 67.6839C30.2104 67.6656 30.1233 67.6586 30.0541 67.6472C29.996 67.6425 29.9558 67.6334 29.9044 67.6175C29.8754 67.6151 29.8531 67.6015 29.824 67.5992C29.5136 67.533 29.2367 67.4872 28.9665 67.4301C28.9151 67.4141 28.8682 67.4163 28.828 67.4072C28.7476 67.3889 28.6672 67.3706 28.598 67.3592C28.5176 67.3409 28.4483 67.3295 28.3858 67.3068L28.2652 67.2794L28.0754 67.2405C27.9325 67.1996 27.8052 67.1835 27.6914 67.1448C27.6221 67.1334 27.5708 67.1174 27.5015 67.106C27.3921 67.0854 27.2894 67.0535 27.18 67.033C27.0996 67.0147 27.0192 66.9965 26.9344 66.9602C26.854 66.9419 26.7624 66.9169 26.682 66.8986C26.5213 66.8621 26.3561 66.8075 26.1953 66.771L25.9497 66.6982C25.8983 66.6823 25.847 66.6664 25.7956 66.6504C25.7666 66.6481 25.7331 66.6277 25.7041 66.6254L25.5723 66.5912C25.2977 66.516 25.0186 66.4228 24.744 66.3477C24.6234 66.3203 24.4984 66.2749 24.3846 66.2362C24.3444 66.2271 24.3109 66.2067 24.2707 66.1976C24.1166 66.1498 23.9514 66.0953 23.7974 66.0475C23.7058 66.0225 23.621 65.9862 23.5295 65.9611L23.3241 65.8974C23.2214 65.8656 23.1366 65.8293 23.0339 65.7974C22.9825 65.7815 22.92 65.7588 22.8687 65.7428L22.4534 65.5974C22.2882 65.5428 22.1298 65.477 21.9646 65.4225C21.7949 65.3498 21.6186 65.2885 21.4601 65.2227C21.3351 65.1772 21.2168 65.1205 21.0918 65.0751L20.661 64.9048C20.5762 64.8685 20.4802 64.8254 20.3954 64.7891C20.3508 64.7619 20.2994 64.746 20.2369 64.7232C19.208 64.2807 18.1591 63.7953 17.1303 63.2761C16.2422 62.8272 15.3564 62.3489 14.484 61.8482C14.4505 61.8278 14.4059 61.8006 14.3725 61.7802C14.3167 61.7462 14.2609 61.7122 14.2051 61.6783C14.1159 61.6239 14.0043 61.5559 13.9151 61.5016C13.7478 61.3996 13.5916 61.3045 13.4176 61.2138L13.3618 61.1798C13.132 61.0552 12.9268 60.9148 12.726 60.7925C12.5921 60.7109 12.4806 60.6429 12.3579 60.5682C12.2017 60.473 12.0456 60.3779 11.9006 60.2896C11.8336 60.2488 11.7667 60.208 11.6998 60.1672L11.6775 60.1536C11.6105 60.1129 11.5436 60.0721 11.4655 60.0245C11.1978 59.8614 10.9412 59.7051 10.7114 59.5805L10.5374 59.4898L10.3812 59.3946C10.2808 59.3335 10.1737 59.2836 10.0845 59.2292C9.89925 59.1317 9.72961 59.0591 9.59345 59.0069C9.30997 58.8956 9.11783 58.8861 9.02821 58.9851C8.94531 59.0729 8.96492 59.2692 9.08935 59.5447C9.15377 59.6915 9.24051 59.8519 9.34955 60.0258C9.40071 60.1184 9.46303 60.2178 9.53649 60.3241L9.6411 60.48C9.67226 60.5297 9.72131 60.5749 9.75246 60.6246L9.76362 60.6314C9.93286 60.8574 10.1311 61.0858 10.3383 61.3502L10.3806 61.4067C10.4296 61.452 10.4608 61.5017 10.5031 61.5582C10.5565 61.6215 10.6212 61.6915 10.6858 61.7616C10.815 61.9018 10.951 62.0308 11.0802 62.1709C11.1293 62.2162 11.1827 62.2795 11.2318 62.3247C11.4702 62.5622 11.702 62.8109 11.9695 63.0507C12.1389 63.2 12.3017 63.3606 12.4822 63.5167L12.5759 63.5891C12.6361 63.6412 12.6963 63.6932 12.7565 63.7452C12.8167 63.7973 12.8769 63.8493 12.9371 63.9013C12.9705 63.9217 12.9973 63.9534 13.0307 63.9738C13.82 64.639 14.6987 65.2819 15.6199 65.9046C16.0015 66.1063 16.3585 66.3238 16.7266 66.548ZM66.7159 56.1094C66.6822 56.1657 66.6597 56.2288 66.6328 56.2738C66.5565 56.427 66.4801 56.5802 66.3858 56.7378C66.3185 56.8505 66.2512 56.9631 66.2018 57.0712C66.0312 57.3821 65.8606 57.6929 65.6565 57.9833L65.2751 58.5959C65.1832 58.7242 65.0845 58.8639 65.0037 58.999C64.9633 59.0666 64.9118 59.1273 64.8714 59.1949C64.396 59.8884 63.8513 60.5705 63.105 61.437C63.0468 61.509 62.9952 61.5698 62.9325 61.6238C62.9079 61.6395 62.8877 61.6733 62.8631 61.689C62.8183 61.7385 62.7802 61.7768 62.7354 61.8263L62.6211 61.941C62.5696 62.0018 62.5069 62.0557 62.4554 62.1165C62.359 62.2268 62.2336 62.3347 62.1261 62.4382L62.1126 62.4608C61.9424 62.6182 61.8012 62.778 61.631 62.9355C61.5997 62.9624 61.5751 62.9782 61.5437 63.0052C61.4048 63.1356 61.2704 63.2842 61.1204 63.4078C60.4418 64.0084 59.7298 64.5885 58.9867 65.1189C58.286 65.6291 57.5408 66.1122 56.762 66.5748C56.0504 67.0016 55.2986 67.4192 54.5133 67.8164C54.4283 67.8568 54.3612 67.8927 54.2762 67.9331C54.1666 67.9892 54.0569 68.0453 53.954 68.0902L53.3724 68.3503C53.1913 68.4243 53.0145 68.5163 52.8445 68.5971C52.6454 68.6755 52.4508 68.772 52.2518 68.8504C52.2092 68.8706 52.1846 68.8864 52.1489 68.8953C52.0885 68.9199 52.0169 68.9378 51.9565 68.9625L51.6903 69.0768C51.5763 69.1149 51.4734 69.1597 51.3526 69.209L51.1066 69.2896C50.9434 69.3591 50.798 69.4241 50.6302 69.4756L50.552 69.5047C50.3596 69.5719 50.174 69.6278 49.9929 69.7018C49.8542 69.7556 49.7111 69.7913 49.5725 69.845L49.4226 69.892C49.3511 69.9099 49.2907 69.9346 49.2124 69.9637L49.1409 69.9815C49.0805 70.0062 49.0268 70.0196 48.9553 70.0374C48.9195 70.0464 48.8837 70.0553 48.8591 70.071C48.5483 70.1582 48.2554 70.2409 47.9446 70.3281L47.759 70.384L47.6203 70.4378L47.484 70.4622C47.3945 70.4845 47.2984 70.5181 47.209 70.5404L46.6656 70.6857L46.5225 70.7214C46.3973 70.7527 46.2542 70.7884 46.129 70.8196L45.588 70.9355C45.4807 70.9623 45.3801 70.9778 45.2728 71.0046C45.2013 71.0225 45.1186 71.0336 45.047 71.0514C44.9576 71.0738 44.8749 71.0848 44.7854 71.1071C44.6849 71.1227 44.5954 71.145 44.5239 71.1629L44.0858 71.2339C43.8846 71.265 43.6767 71.3073 43.4755 71.3383C43.2207 71.3828 42.9547 71.4205 42.7066 71.4537C42.6239 71.4647 42.5412 71.4758 42.4585 71.4868C42.3579 71.5024 42.2641 71.5066 42.1635 71.5222C42.0987 71.5288 42.016 71.5398 41.9512 71.5464C41.9154 71.5554 41.8863 71.553 41.8506 71.562C41.7209 71.5752 41.5846 71.5996 41.455 71.6128C41.2315 71.6303 41.0013 71.659 40.7778 71.6765L40.4716 71.705C40.3889 71.7161 40.3129 71.7159 40.2302 71.7269C40.1475 71.738 40.0648 71.7491 39.9888 71.7489C39.9129 71.7487 39.8302 71.7598 39.7475 71.7708C39.6715 71.7706 39.5888 71.7817 39.5128 71.7815L39.3363 71.7968C39.0838 71.812 38.8313 71.8271 38.5787 71.8422C38.3799 71.844 38.1743 71.857 37.9754 71.8587L37.6648 71.8692C37.1844 71.8837 36.7174 71.8758 36.2616 71.8746C36.1566 71.8721 36.0516 71.8695 35.9466 71.867C34.9188 71.8553 33.8777 71.7895 32.8569 71.6899C32.0035 71.6155 31.1592 71.5005 30.2815 71.3651C30.0849 71.3376 29.9062 71.3055 29.7276 71.2735C29.6404 71.2665 29.5489 71.2414 29.4618 71.2344C29.4037 71.2298 29.3523 71.2139 29.2943 71.2092C29.2652 71.2069 29.2362 71.2045 29.2027 71.1841L28.794 71.1041C28.6042 71.0653 28.4367 71.0401 28.2648 70.9968C28.2134 70.9808 28.1665 70.983 28.1151 70.967C28.0169 70.9533 27.9365 70.935 27.8561 70.9167L27.7355 70.8894C27.6439 70.8643 27.5635 70.8461 27.4832 70.8278L26.8579 70.6773C26.7954 70.6546 26.7262 70.6432 26.6681 70.6385C26.5475 70.6111 26.4269 70.5837 26.3131 70.5451C26.13 70.495 25.9469 70.4449 25.7749 70.4016L25.7526 70.388C25.5807 70.3447 25.4155 70.2901 25.2324 70.24L24.9578 70.1649C24.9064 70.149 24.8439 70.1262 24.7814 70.1035C24.7591 70.0899 24.7189 70.0808 24.6899 70.0785C24.4845 70.0148 24.2679 69.9443 24.0625 69.8806L23.6405 69.7464C23.4976 69.7055 23.3615 69.6532 23.2253 69.601C23.1919 69.5806 23.1628 69.5783 23.1226 69.5691L23.0378 69.5329C22.9016 69.4806 22.7655 69.4284 22.6226 69.3874C22.4574 69.3328 22.2877 69.2602 22.1225 69.2057C22.0087 69.167 21.9016 69.1171 21.8056 69.074C21.7542 69.0581 21.6985 69.0241 21.636 69.0014C21.319 68.8697 20.9909 68.7313 20.674 68.5996C20.4486 68.493 20.2343 68.3932 20.0201 68.2934C19.9353 68.2571 19.8393 68.214 19.7612 68.1664L19.3104 67.9533C19.2121 67.9395 19.1117 67.8783 19.0158 67.8352C18.9711 67.808 18.9154 67.774 18.864 67.7581C17.7461 67.1845 16.6729 66.5614 15.6513 65.8776C14.7233 65.2661 13.8514 64.612 13.0553 63.958C13.0219 63.9377 12.9952 63.906 12.9617 63.8856C12.9015 63.8336 12.8413 63.7815 12.7811 63.7295C12.7209 63.6775 12.6607 63.6254 12.6005 63.5734L12.5068 63.501C12.3374 63.3517 12.1747 63.1911 11.9941 63.035C11.7266 62.7952 11.477 62.5509 11.2564 62.309C11.1962 62.257 11.1539 62.2005 11.1048 62.1552C10.9756 62.015 10.8396 61.8861 10.7104 61.7459C10.6458 61.6758 10.5812 61.6057 10.5277 61.5424C10.4854 61.4859 10.4475 61.4475 10.4052 61.391L10.3629 61.3345C10.149 61.0813 9.94632 60.8349 9.78823 60.6157L9.78382 60.5976C9.74151 60.5411 9.70362 60.5027 9.67246 60.453L9.56784 60.2971C9.49438 60.1909 9.43206 60.0915 9.3809 59.9988C9.26744 59.8068 9.1807 59.6464 9.1207 59.5177C8.99628 59.2422 8.97666 59.0459 9.05956 58.9581C9.14245 58.8704 9.33459 58.8799 9.6248 58.9799C9.76097 59.0321 9.93061 59.1047 10.1158 59.2022C10.2118 59.2453 10.301 59.2997 10.4126 59.3676L10.5687 59.4628L10.7316 59.5467C10.9101 59.6554 11.1176 59.7665 11.3295 59.8956C11.3853 59.9296 11.4411 59.9636 11.4969 59.9975C11.5638 60.0383 11.6307 60.0791 11.7088 60.1267L11.7311 60.1403C11.798 60.181 11.865 60.2218 11.9319 60.2626C12.0769 60.3509 12.2331 60.4461 12.3892 60.5412C12.5119 60.616 12.6346 60.6907 12.7573 60.7655C12.9581 60.8878 13.1701 61.0169 13.3931 61.1529L13.4489 61.1868C13.6162 61.2888 13.7724 61.3839 13.9465 61.4746C14.0357 61.5289 14.1361 61.5901 14.2253 61.6445C14.2811 61.6785 14.348 61.7192 14.4038 61.7532C14.4373 61.7736 14.4819 61.8008 14.5153 61.8212C15.3877 62.3219 16.2736 62.8002 17.1617 63.2491C18.1904 63.7683 19.2393 64.2537 20.2683 64.6963C20.3196 64.7122 20.3642 64.7394 20.4267 64.7621C20.5116 64.7984 20.6075 64.8415 20.6923 64.8778L21.1231 65.0481C21.2482 65.0935 21.3664 65.1502 21.4914 65.1957C21.6499 65.2615 21.8263 65.3229 21.9959 65.3955C22.1611 65.45 22.3196 65.5159 22.4848 65.5704L22.9 65.7159C22.9514 65.7318 23.0139 65.7545 23.0652 65.7704C23.1612 65.8135 23.2527 65.8386 23.3554 65.8704L23.5608 65.9341C23.6524 65.9592 23.7372 65.9955 23.8287 66.0205C23.9828 66.0683 24.148 66.1228 24.2953 66.1819C24.3355 66.191 24.369 66.2114 24.4092 66.2205C24.523 66.2592 24.648 66.3046 24.7686 66.332C25.0433 66.4071 25.3223 66.5003 25.597 66.5755L25.7287 66.6097C25.7577 66.612 25.7912 66.6324 25.8203 66.6347C25.8716 66.6506 25.9229 66.6666 25.9743 66.6825L26.2266 66.744C26.3874 66.7805 26.5415 66.8283 26.7022 66.8648C26.7826 66.8831 26.8853 66.9149 26.9657 66.9332C27.0461 66.9514 27.1198 66.9809 27.2113 67.006C27.314 67.0378 27.4235 67.0584 27.5329 67.079C27.5954 67.1017 27.6535 67.1064 27.716 67.1291C27.8366 67.1565 27.9683 67.1906 28.1068 67.2136L28.2899 67.2637L28.4105 67.291C28.4797 67.3025 28.5534 67.332 28.6226 67.3435C28.703 67.3617 28.7722 67.3732 28.8526 67.3914C28.8928 67.4006 28.9442 67.4165 28.9911 67.4144C29.2501 67.4646 29.5315 67.5285 29.8487 67.5835C29.8777 67.5858 29.9 67.5994 29.929 67.6017C29.9804 67.6177 30.0273 67.6155 30.0787 67.6315C30.1591 67.6497 30.235 67.6499 30.3154 67.6681L30.8268 67.78C32.5979 68.0756 34.2979 68.2356 36.0182 68.2852C36.1232 68.2877 36.2394 68.297 36.3444 68.2995C36.7533 68.3028 37.1666 68.3242 37.6001 68.3118C37.7699 68.3077 37.9509 68.3105 38.1319 68.3132L38.4357 68.314C38.6994 68.3056 38.9698 68.286 39.2514 68.2732L39.2983 68.2711C39.4391 68.2647 39.5978 68.2538 39.7385 68.2474C39.8034 68.2408 39.8793 68.241 39.962 68.2299L40.0559 68.2257C40.1028 68.2235 40.1386 68.2146 40.1855 68.2125C40.4559 68.1929 40.7331 68.162 41.0035 68.1424L41.0862 68.1313C41.2091 68.1294 41.3275 68.1094 41.446 68.0894C41.4751 68.0917 41.5108 68.0828 41.5466 68.0739L41.6762 68.0607C41.788 68.0519 41.8886 68.0364 42.007 68.0164C42.0897 68.0054 42.1724 67.9943 42.2551 67.9832C42.4853 67.9545 42.7156 67.9258 42.9525 67.8858L43.3548 67.8237C43.5381 67.7971 43.7214 67.7705 43.9114 67.7326C43.9762 67.726 44.0589 67.715 44.1551 67.6814L44.3988 67.6301C44.553 67.6012 44.7252 67.5678 44.8861 67.5276C44.9756 67.5053 45.0762 67.4898 45.1767 67.4742L45.3668 67.4364C45.4741 67.4096 45.5814 67.3828 45.6999 67.3628L45.9793 67.3026C46.1045 67.2714 46.2297 67.2401 46.3661 67.2157C46.4555 67.1933 46.5271 67.1755 46.6165 67.1531L46.7484 67.1106L46.8736 67.0794C47.2023 66.9877 47.5489 66.8916 47.8843 66.7887C47.9201 66.7798 47.9447 66.7641 47.9737 66.7664C48.0274 66.753 48.0811 66.7396 48.1414 66.715L48.1951 66.7016C48.2667 66.6837 48.327 66.6591 48.3986 66.6412C48.5663 66.5897 48.7407 66.527 48.9084 66.4756L49.0404 66.4331C49.1723 66.3905 49.3042 66.348 49.4362 66.3055L49.6285 66.2383C49.7314 66.1935 49.8455 66.1554 49.9484 66.1106L50.4605 65.9157C50.5142 65.9023 50.5746 65.8776 50.6171 65.8574L50.7088 65.8058C50.7692 65.7811 50.834 65.7745 50.8833 65.7431C50.9079 65.7273 50.9436 65.7184 50.9794 65.7095L51.2814 65.5862C51.5229 65.4876 51.7712 65.3777 52.0128 65.2791L52.0307 65.2746C52.194 65.2051 52.364 65.1243 52.534 65.0436L53.0552 64.8081C53.7666 64.458 54.4669 64.1012 55.1158 63.7284C55.814 63.3242 56.4898 62.9064 57.121 62.4614C57.7769 62.0007 58.4239 61.5038 59.0195 60.9911C59.1449 60.8831 59.2703 60.7752 59.3845 60.6604C59.4159 60.6334 59.4405 60.6177 59.4607 60.5839C59.6063 60.4422 59.763 60.3073 59.9086 60.1655C60.0094 60.0733 60.0923 59.9855 60.1819 59.8865C60.2335 59.8258 60.2894 59.7831 60.341 59.7223L60.3545 59.6998C60.4239 59.6345 60.4822 59.5625 60.5516 59.4973C60.5651 59.4747 60.5897 59.459 60.6143 59.4433C60.6591 59.3938 60.7218 59.3398 60.7734 59.279C61.2282 58.7727 61.8198 58.0885 62.3512 57.3522C62.4028 57.2915 62.4432 57.2239 62.4947 57.1631C62.5732 57.0573 62.6517 56.9515 62.7301 56.8457L63.0756 56.3188C63.2415 56.0665 63.3964 55.8075 63.5512 55.5485C63.6118 55.4472 63.6791 55.3346 63.7397 55.2332C63.8137 55.1094 63.8945 54.9742 63.9574 54.8436C63.9911 54.7873 64.0136 54.7242 64.0472 54.6678C64.0944 54.589 64.1236 54.5147 64.1707 54.4358C64.3959 54.6191 64.6211 54.8024 64.8531 54.9744C65.4218 55.3977 66.0576 55.7851 66.7159 56.1094ZM66.7159 56.1094C66.3834 55.9529 66.0599 55.7558 65.7476 55.5655C65.1898 55.2257 64.659 54.8408 64.1551 54.411C64.2113 54.2916 64.2719 54.1902 64.3281 54.0708L64.6021 53.485L64.7774 53.1156L64.8651 52.8925L65.0832 52.3494C65.7005 52.9713 66.3717 53.5031 67.0745 53.9313C67.2418 54.0332 67.4091 54.1352 67.5831 54.2258L67.5404 54.3227L67.5045 54.4083L67.3495 54.744C67.2708 54.9265 67.1921 55.1091 67.109 55.2735L67.0461 55.4042L66.7361 56.0756C66.7294 56.0868 66.7159 56.1094 66.7159 56.1094ZM91.2828 32.3483C91.3051 32.3619 91.3361 32.4883 91.3311 32.7003C91.3286 32.8063 91.3282 32.9597 91.3278 33.1131L91.3187 33.1537C91.3183 33.307 91.3045 33.4829 91.2883 33.6882C91.2654 33.9047 91.247 34.1392 91.2083 34.4075C91.1968 34.5541 91.1741 34.6939 91.1581 34.8224L91.1354 34.9622C91.1217 35.0615 91.1013 35.1719 91.0877 35.2711C91.0719 35.323 91.074 35.3704 91.0694 35.429C91.0558 35.5282 91.0354 35.6387 91.015 35.7492L90.8975 36.2767C90.8817 36.3285 90.8771 36.3872 90.8657 36.4571C90.8453 36.5675 90.8226 36.7073 90.7955 36.8291L90.7345 37.0838C90.7141 37.1943 90.6826 37.298 90.6622 37.4084C90.4951 38.1208 90.2606 38.9458 89.9317 40.0051C89.8776 40.1719 89.8057 40.3431 89.7517 40.5099L89.6774 40.7105C89.6391 40.8254 89.6009 40.9404 89.5514 41.0485L89.538 41.071L89.3918 41.4428C89.3558 41.5285 89.3199 41.6141 89.2839 41.6997C89.2187 41.8597 89.1579 42.0377 89.0927 42.1977C88.9848 42.4546 88.8769 42.7115 88.7623 42.9796C88.2589 44.1016 87.6998 45.1897 87.0984 46.2212L86.5935 47.0658C86.4791 47.2572 86.3535 47.4419 86.2279 47.6265C86.174 47.7166 86.1023 47.8112 86.0484 47.9012C85.9811 48.0139 85.9026 48.1197 85.8242 48.2255C85.804 48.2593 85.7838 48.2931 85.7524 48.3201L85.7188 48.3763C85.6336 48.4934 85.5416 48.6218 85.4676 48.7456C85.4205 48.8245 85.3689 48.8852 85.3218 48.9641C85.277 49.0136 85.2433 49.0699 85.1985 49.1194L85.1648 49.1757C85.1447 49.2095 85.1133 49.2365 85.0931 49.2702C85.0146 49.3761 84.9294 49.4931 84.8331 49.6034C83.9162 50.7808 82.8946 51.8789 81.7771 52.8572C81.168 53.3925 80.5389 53.8849 79.9077 54.3299C79.2272 54.8063 78.5089 55.2443 77.8019 55.6124C77.0278 56.0165 76.2181 56.3527 75.4443 56.6034C75.0128 56.7398 74.5879 56.8651 74.1721 56.9497C73.7205 57.0433 73.2757 57.1256 72.8399 57.1673C70.9357 57.3744 69.0282 57.1033 67.3363 56.3952C67.1265 56.3134 66.9123 56.2136 66.7159 56.1094C66.7226 56.0981 66.7294 56.0868 66.7361 56.0756L67.0617 55.429L67.1246 55.2984C67.2033 55.1159 67.2819 54.9334 67.365 54.7689L67.556 54.3476L67.5987 54.2507C67.7839 54.3482 67.958 54.4388 68.1499 54.5251C68.3084 54.5909 68.4669 54.6567 68.6365 54.7293L68.699 54.752C68.7727 54.7816 68.853 54.7998 68.9267 54.8293C69.0406 54.868 69.1433 54.8998 69.2571 54.9385C69.3085 54.9544 69.3598 54.9703 69.4179 54.975L69.5229 54.9775C69.5341 54.9843 69.5408 54.973 69.5631 54.9866C69.6435 55.0049 69.7283 55.0412 69.8154 55.0482C69.8735 55.0528 69.936 55.0755 69.9941 55.0802C70.1147 55.1076 70.2532 55.1305 70.3916 55.1534C71.1421 55.2727 71.9106 55.3107 72.6928 55.2496C74.1097 55.145 75.5809 54.7202 77.0686 54.0135C77.724 53.7062 78.373 53.3334 79.0198 52.9133C79.6173 52.5246 80.2128 52.0885 80.7882 51.6095C81.863 50.7281 82.8642 49.7404 83.7607 48.6736C84.1932 48.1536 84.6035 47.6201 84.9824 47.1135C85.0541 47.019 85.1214 46.9064 85.1932 46.8118C85.3053 46.6497 85.4174 46.4876 85.5407 46.3322L86.0589 45.5418C86.678 44.5825 87.2615 43.5554 87.8072 42.4899C87.9262 42.2398 88.0565 41.9965 88.1688 41.7577C88.2451 41.6045 88.3103 41.4445 88.38 41.3026C88.4159 41.217 88.4586 41.1201 88.5058 41.0413L88.6675 40.6943L88.6877 40.6605C88.7371 40.5524 88.7798 40.4555 88.8181 40.3406C88.9126 40.1062 89.0114 39.8899 89.0991 39.6668C89.5017 38.637 89.7673 37.8618 89.9902 37.1834L90.1681 36.6312C90.2064 36.5163 90.238 36.4126 90.2584 36.3021C90.2809 36.239 90.2922 36.1691 90.3147 36.106C90.3463 36.0023 90.3778 35.8987 90.4093 35.795L90.459 35.6101C90.4905 35.5065 90.5153 35.414 90.529 35.3148C90.5448 35.263 90.5561 35.1931 90.5719 35.1412C90.6125 34.997 90.6419 34.8459 90.6825 34.7017C90.7231 34.5574 90.7569 34.4244 90.784 34.3027C90.845 34.0479 90.8925 33.8157 90.9556 33.6083C90.9895 33.4754 91.0233 33.3424 91.0437 33.2319C91.0551 33.162 91.0708 33.1102 91.0866 33.0583C91.1228 32.896 91.1566 32.763 91.1882 32.6593C91.2155 32.4609 91.2426 32.3391 91.2828 32.3483ZM63.7712 36.6487C63.7823 36.6555 63.7868 36.6735 63.7868 36.6735C63.8872 36.7347 63.9964 36.832 64.128 36.9428C64.2372 37.0401 64.3553 37.1735 64.4934 37.3498L64.6782 37.6007L64.774 37.7205C64.8118 37.7589 64.8318 37.8018 64.863 37.8515C65.3082 38.5068 65.6817 39.2567 65.9611 40.0875C66.2273 40.8641 66.4172 41.7173 66.5178 42.5928C66.6163 43.4208 66.6453 44.3142 66.6206 45.2209C66.6091 45.3675 66.6043 45.5028 66.5927 45.6494C66.5925 45.7261 66.5812 45.796 66.581 45.8727C66.5581 46.0892 66.5285 46.3169 66.5167 46.5402L66.4846 46.874C66.4732 46.9439 66.4619 47.0138 66.4506 47.0837C66.4415 47.1242 66.4325 47.1648 66.4302 47.1941L66.3257 47.8525C66.3301 47.8706 66.3167 47.8931 66.3211 47.9112C66.3188 47.9405 66.3097 47.9811 66.3074 48.0104L66.2757 48.1908L66.2034 48.5154L66.1422 48.8468C66.1399 48.8761 66.1264 48.8986 66.1241 48.928C66.106 49.0091 66.088 49.0903 66.0699 49.1714C66.0337 49.3338 65.9864 49.4893 65.957 49.6403L65.9208 49.8027C65.9118 49.8432 65.9027 49.8838 65.8937 49.9244C65.8824 49.9943 65.8598 50.0574 65.8485 50.1273L65.7539 50.4383C65.6975 50.6344 65.6344 50.8418 65.5781 51.0379L65.5757 51.0672C65.5307 51.1934 65.479 51.3309 65.434 51.4571C65.4048 51.5314 65.3755 51.6058 65.3574 51.687L65.2226 51.9889C65.2091 52.0114 65.2024 52.0226 65.1957 52.0339C65.1866 52.0745 65.1843 52.1038 65.1753 52.1444L65.0876 52.3675C64.8335 52.1051 64.5751 51.8248 64.3345 51.54C63.8066 50.8957 63.3413 50.1975 62.95 49.4521C62.5742 48.7316 62.2455 47.9322 61.9907 47.0857C61.7448 46.2752 61.5615 45.4108 61.4498 44.5286C61.3425 43.6644 61.2956 42.7755 61.3135 41.88C61.3137 41.8033 61.3139 41.7267 61.3185 41.668C61.3189 41.5146 61.3305 41.368 61.3309 41.2146L61.3287 41.1673C61.3449 40.962 61.3499 40.75 61.3661 40.5448L61.3982 40.2111L61.4623 39.6202L61.4736 39.5503C61.4873 39.4511 61.5009 39.3519 61.5257 39.2595C61.6027 38.8762 61.7087 38.4953 61.866 38.1302C62.0122 37.7584 62.1962 37.4251 62.398 37.1639C62.5819 36.9073 62.8148 36.6958 63.0027 36.6106C63.0877 36.5702 63.1592 36.5524 63.2419 36.5413C63.3314 36.519 63.4185 36.526 63.51 36.551C63.6016 36.5761 63.682 36.5943 63.7712 36.6487Z" fill="white"/>
</svg>
