<svg width="24" height="24" viewBox="0 0 24 24" fill="none" xmlns="http://www.w3.org/2000/svg">
<g clip-path="url(#clip0_519_540)">
<path d="M14.5712 16.2846C15.0258 16.2846 15.4619 16.104 15.7833 15.7825C16.1048 15.461 16.2855 15.025 16.2855 14.5703" stroke="#181818" stroke-width="1.5" stroke-linecap="round" stroke-linejoin="round"/>
<path d="M7.71411 16.2832H10.2855" stroke="#181818" stroke-width="1.5" stroke-linecap="round" stroke-linejoin="round"/>
<path d="M16.2855 7.71094V10.2824" stroke="#181818" stroke-width="1.5" stroke-linecap="round" stroke-linejoin="round"/>
<path d="M9.4284 7.71094C8.97374 7.71094 8.53771 7.89155 8.21621 8.21304C7.89472 8.53453 7.71411 8.97057 7.71411 9.42522" stroke="#181818" stroke-width="1.5" stroke-linecap="round" stroke-linejoin="round"/>
<path d="M0.857056 2.56975C0.857056 2.1151 1.03767 1.67906 1.35916 1.35757C1.68065 1.03608 2.11668 0.855469 2.57134 0.855469H14.5713C15.026 0.855469 15.462 1.03608 15.7835 1.35757C16.105 1.67906 16.2856 2.1151 16.2856 2.56975V7.71261H21.4285C21.8831 7.71261 22.3192 7.89322 22.6407 8.21471C22.9622 8.53621 23.1428 8.97224 23.1428 9.4269V21.4269C23.1428 21.8816 22.9622 22.3176 22.6407 22.6391C22.3192 22.9606 21.8831 23.1412 21.4285 23.1412H9.42848C8.97383 23.1412 8.53779 22.9606 8.2163 22.6391C7.89481 22.3176 7.7142 21.8816 7.7142 21.4269V16.284H2.57134C2.11668 16.284 1.68065 16.1034 1.35916 15.7819C1.03767 15.4604 0.857056 15.0244 0.857056 14.5698V2.56975Z" stroke="#181818" stroke-width="1.5" stroke-linecap="round" stroke-linejoin="round"/>
<path d="M13.7141 7.71094H16.2855" stroke="#181818" stroke-width="1.5" stroke-linecap="round" stroke-linejoin="round"/>
<path d="M7.71411 13.7109V16.2824" stroke="#181818" stroke-width="1.5" stroke-linecap="round" stroke-linejoin="round"/>
</g>
<defs>
<clipPath id="clip0_519_540">
<rect width="24" height="24" fill="white"/>
</clipPath>
</defs>
</svg>
