<svg width="24" height="24" viewBox="0 0 24 24" fill="none" xmlns="http://www.w3.org/2000/svg">
<path d="M8.966 3.85547L9.70314 1.95261C9.82746 1.63044 10.0462 1.35332 10.3307 1.15755C10.6151 0.961778 10.9521 0.856489 11.2974 0.855469H12.7031C13.0485 0.856489 13.3854 0.961778 13.6699 1.15755C13.9544 1.35332 14.1731 1.63044 14.2974 1.95261L15.0346 3.85547L17.5374 5.29547L19.5603 4.9869C19.8971 4.94118 20.2399 4.99663 20.5452 5.14619C20.8504 5.29576 21.1043 5.5327 21.2746 5.8269L21.9603 7.0269C22.136 7.32578 22.2169 7.67092 22.1925 8.01676C22.168 8.3626 22.0392 8.69289 21.8231 8.96404L20.5717 10.5583V13.4383L21.8574 15.0326C22.0735 15.3038 22.2023 15.634 22.2267 15.9799C22.2512 16.3257 22.1703 16.6709 21.9946 16.9698L21.3089 18.1698C21.1386 18.464 20.8847 18.7009 20.5795 18.8505C20.2742 19 19.9314 19.0555 19.5946 19.0098L17.5717 18.7012L15.0689 20.1412L14.3317 22.044C14.2074 22.3662 13.9887 22.6433 13.7042 22.8391C13.4197 23.0349 13.0828 23.1402 12.7374 23.1412H11.2974C10.9521 23.1402 10.6151 23.0349 10.3307 22.8391C10.0462 22.6433 9.82746 22.3662 9.70314 22.044L8.966 20.1412L6.46314 18.7012L4.44028 19.0098C4.10345 19.0555 3.76064 19 3.45539 18.8505C3.15015 18.7009 2.89626 18.464 2.726 18.1698L2.04028 16.9698C1.86457 16.6709 1.78361 16.3257 1.8081 15.9799C1.83258 15.634 1.96136 15.3038 2.17742 15.0326L3.42885 13.4383V10.5583L2.14314 8.96404C1.92707 8.69289 1.7983 8.3626 1.77381 8.01676C1.74933 7.67092 1.83028 7.32578 2.006 7.0269L2.69171 5.8269C2.86198 5.5327 3.11587 5.29576 3.42111 5.14619C3.72635 4.99663 4.06917 4.94118 4.406 4.9869L6.42885 5.29547L8.966 3.85547ZM8.57171 11.9983C8.57171 12.6764 8.77279 13.3393 9.14953 13.9031C9.52626 14.467 10.0617 14.9064 10.6882 15.1659C11.3147 15.4254 12.0041 15.4933 12.6692 15.361C13.3342 15.2287 13.9452 14.9022 14.4246 14.4227C14.9041 13.9432 15.2307 13.3323 15.363 12.6672C15.4953 12.0021 15.4274 11.3128 15.1679 10.6863C14.9084 10.0598 14.4689 9.52431 13.9051 9.14757C13.3413 8.77084 12.6784 8.56975 12.0003 8.56975C11.091 8.56975 10.2189 8.93098 9.57592 9.57396C8.93293 10.2169 8.57171 11.089 8.57171 11.9983V11.9983Z" stroke="#181818" stroke-width="1.5" stroke-linecap="round" stroke-linejoin="round"/>
</svg>
