<svg width="24" height="24" viewBox="0 0 24 24" fill="none" xmlns="http://www.w3.org/2000/svg">
<g clip-path="url(#clip0_475_1376)">
<path d="M21.4286 0.855469H2.57146C1.62469 0.855469 0.857178 1.62298 0.857178 2.56975V21.4269C0.857178 22.3737 1.62469 23.1412 2.57146 23.1412H21.4286C22.3754 23.1412 23.1429 22.3737 23.1429 21.4269V2.56975C23.1429 1.62298 22.3754 0.855469 21.4286 0.855469Z" stroke="#181818" stroke-width="1.5" stroke-linecap="round" stroke-linejoin="round"/>
<path d="M12 19.7109C15.3137 19.7109 18 17.0246 18 13.7109C18 10.3972 15.3137 7.71094 12 7.71094C8.68629 7.71094 6 10.3972 6 13.7109C6 17.0246 8.68629 19.7109 12 19.7109Z" stroke="#181818" stroke-width="1.5" stroke-linecap="round" stroke-linejoin="round"/>
<path d="M0.857178 6H6.00003" stroke="#181818" stroke-width="1.5" stroke-linecap="round" stroke-linejoin="round"/>
<path d="M18 6H23.1429" stroke="#181818" stroke-width="1.5" stroke-linecap="round" stroke-linejoin="round"/>
<path d="M12 13.6602V19.6602" stroke="#181818" stroke-width="1.5" stroke-linecap="round" stroke-linejoin="round"/>
<path d="M6.85718 10.625L12 13.6593" stroke="#181818" stroke-width="1.5" stroke-linecap="round" stroke-linejoin="round"/>
<path d="M17.1429 10.625L12 13.6593" stroke="#181818" stroke-width="1.5" stroke-linecap="round" stroke-linejoin="round"/>
</g>
<defs>
<clipPath id="clip0_475_1376">
<rect width="24" height="24" fill="white"/>
</clipPath>
</defs>
</svg>
