<svg width="24" height="24" viewBox="0 0 24 24" fill="none" xmlns="http://www.w3.org/2000/svg">
<g clip-path="url(#clip0_519_529)">
<path d="M7.7142 22.2846C11.5013 22.2846 14.5713 19.2146 14.5713 15.4275C14.5713 11.6404 11.5013 8.57031 7.7142 8.57031C3.9271 8.57031 0.857056 11.6404 0.857056 15.4275C0.857056 19.2146 3.9271 22.2846 7.7142 22.2846Z" stroke="#181818" stroke-width="1.5" stroke-linecap="round" stroke-linejoin="round"/>
<path d="M16.2857 22.2846C20.0728 22.2846 23.1428 19.2146 23.1428 15.4275C23.1428 11.6404 20.0728 8.57031 16.2857 8.57031C12.4986 8.57031 9.42853 11.6404 9.42853 15.4275C9.42853 19.2146 12.4986 22.2846 16.2857 22.2846Z" stroke="#181818" stroke-width="1.5" stroke-linecap="round" stroke-linejoin="round"/>
<path d="M11.9999 15.4291C15.787 15.4291 18.857 12.3591 18.857 8.57199C18.857 4.78489 15.787 1.71484 11.9999 1.71484C8.21281 1.71484 5.14276 4.78489 5.14276 8.57199C5.14276 12.3591 8.21281 15.4291 11.9999 15.4291Z" stroke="#181818" stroke-width="1.5" stroke-linecap="round" stroke-linejoin="round"/>
</g>
<defs>
<clipPath id="clip0_519_529">
<rect width="24" height="24" fill="white"/>
</clipPath>
</defs>
</svg>
