<svg width="40" height="40" viewBox="0 0 40 40" fill="none" xmlns="http://www.w3.org/2000/svg">
<path d="M32.8576 1.42859H7.14328C5.56532 1.42859 4.28613 2.70778 4.28613 4.28573V35.7143C4.28613 37.2923 5.56532 38.5714 7.14328 38.5714H32.8576C34.4355 38.5714 35.7147 37.2923 35.7147 35.7143V4.28573C35.7147 2.70778 34.4355 1.42859 32.8576 1.42859Z" stroke="#181818" stroke-width="1.5" stroke-linecap="round" stroke-linejoin="round"/>
<path d="M20.0001 25.7143C24.734 25.7143 28.5716 21.8768 28.5716 17.1429C28.5716 12.409 24.734 8.57147 20.0001 8.57147C15.2663 8.57147 11.4287 12.409 11.4287 17.1429C11.4287 21.8768 15.2663 25.7143 20.0001 25.7143Z" stroke="#181818" stroke-width="1.5" stroke-linecap="round" stroke-linejoin="round"/>
<path d="M11.4287 17.1429H28.5716" stroke="#181818" stroke-width="1.5" stroke-linecap="round" stroke-linejoin="round"/>
<path d="M20 25.7143V8.57147" stroke="#181818" stroke-width="1.5" stroke-linecap="round" stroke-linejoin="round"/>
</svg>
