<svg width="50" height="50" viewBox="0 0 50 50" fill="none" xmlns="http://www.w3.org/2000/svg">
<path d="M24.5358 33.929C33.4118 33.929 40.6072 26.7336 40.6072 17.8576C40.6072 8.98156 33.4118 1.78613 24.5358 1.78613C15.6598 1.78613 8.46436 8.98156 8.46436 17.8576C8.46436 26.7336 15.6598 33.929 24.5358 33.929Z" stroke="#181818" stroke-width="1.5" stroke-linecap="round" stroke-linejoin="round"/>
<path d="M24.5358 25.0004C28.4807 25.0004 31.6787 21.8025 31.6787 17.8576C31.6787 13.9127 28.4807 10.7147 24.5358 10.7147C20.5909 10.7147 17.3929 13.9127 17.3929 17.8576C17.3929 21.8025 20.5909 25.0004 24.5358 25.0004Z" stroke="#181818" stroke-width="1.5" stroke-linecap="round" stroke-linejoin="round"/>
<path d="M21.4286 33.6437L18.2858 46.858C18.2236 47.1091 18.1086 47.3441 17.9485 47.5473C17.7884 47.7505 17.5868 47.9173 17.3572 48.0366C17.1149 48.1417 16.8535 48.196 16.5893 48.196C16.3252 48.196 16.0638 48.1417 15.8215 48.0366L3.96433 42.858C3.71562 42.7404 3.49677 42.568 3.32422 42.3537C3.15167 42.1395 3.02989 41.8889 2.96803 41.6209C2.90617 41.3528 2.90584 41.0742 2.96705 40.806C3.02826 40.5378 3.14944 40.2869 3.32147 40.0723L12.5 28.5723" stroke="#181818" stroke-width="1.5" stroke-linecap="round" stroke-linejoin="round"/>
<path d="M28.5713 33.465L31.7856 46.8578C31.8495 47.1132 31.9691 47.3513 32.1358 47.5551C32.3025 47.7588 32.5122 47.9232 32.7499 48.0364C32.9856 48.1429 33.2412 48.198 33.4999 48.198C33.7585 48.198 34.0142 48.1429 34.2499 48.0364L46.0356 42.8578C46.288 42.7417 46.5099 42.5682 46.6835 42.3512C46.8571 42.1342 46.9777 41.8796 47.0356 41.6078C47.1033 41.342 47.1062 41.0637 47.044 40.7965C46.9819 40.5293 46.8565 40.2808 46.6784 40.0721L37.107 27.8936" stroke="#181818" stroke-width="1.5" stroke-linecap="round" stroke-linejoin="round"/>
</svg>
