<svg width="24" height="24" viewBox="0 0 24 24" fill="none" xmlns="http://www.w3.org/2000/svg">
<g clip-path="url(#clip0_362_2116)">
<path d="M15.0172 22.2841C16.0729 22.9652 17.3309 23.262 18.5797 23.1246C19.8285 22.9872 20.992 22.4241 21.8744 21.5298L22.6458 20.7755C22.984 20.4296 23.1734 19.965 23.1734 19.4812C23.1734 18.9974 22.984 18.5329 22.6458 18.1869L19.3715 14.9469C19.0285 14.6098 18.5668 14.4209 18.0858 14.4209C17.6048 14.4209 17.1431 14.6098 16.8001 14.9469V14.9469C16.4542 15.2851 15.9896 15.4745 15.5058 15.4745C15.022 15.4745 14.5574 15.2851 14.2115 14.9469L9.06866 9.80408C8.89709 9.63501 8.76086 9.43352 8.66786 9.21133C8.57487 8.98913 8.52699 8.75067 8.52699 8.5098C8.52699 8.26893 8.57487 8.03046 8.66786 7.80827C8.76086 7.58607 8.89709 7.38458 9.06866 7.21551V7.21551C9.40578 6.87248 9.59468 6.41076 9.59468 5.9298C9.59468 5.44884 9.40578 4.98712 9.06866 4.64408L5.81151 1.38694C5.46558 1.04874 5.00101 0.859375 4.51723 0.859375C4.03344 0.859375 3.56887 1.04874 3.22294 1.38694L2.46866 2.15837C1.57439 3.04078 1.01123 4.2042 0.873861 5.453C0.736493 6.7018 1.0333 7.95981 1.71437 9.01551C5.26302 14.2453 9.77826 18.7489 15.0172 22.2841V22.2841Z" stroke="#181818" stroke-width="1.5" stroke-linecap="round" stroke-linejoin="round"/>
</g>
<defs>
<clipPath id="clip0_362_2116">
<rect width="24" height="24" fill="white"/>
</clipPath>
</defs>
</svg>
