<svg width="30" height="30" viewBox="0 0 30 30" fill="none" xmlns="http://www.w3.org/2000/svg">
<path d="M2.89286 12.5357H5.03571C5.31987 12.5357 5.5924 12.6486 5.79333 12.8495C5.99426 13.0505 6.10714 13.323 6.10714 13.6071V18.9643C6.10714 19.2484 5.99426 19.521 5.79333 19.7219C5.5924 19.9228 5.31987 20.0357 5.03571 20.0357H2.89286C2.32454 20.0357 1.77949 19.8099 1.37763 19.4081C0.975765 19.0062 0.75 18.4612 0.75 17.8928V14.6786C0.75 14.1102 0.975765 13.5652 1.37763 13.1633C1.77949 12.7615 2.32454 12.5357 2.89286 12.5357V12.5357Z" stroke="#EDC701" stroke-width="1.5" stroke-linecap="round" stroke-linejoin="round"/>
<path d="M26.4646 20.0357H24.3217C24.0375 20.0357 23.765 19.9228 23.5641 19.7219C23.3632 19.521 23.2503 19.2484 23.2503 18.9643V13.6071C23.2503 13.323 23.3632 13.0505 23.5641 12.8495C23.765 12.6486 24.0375 12.5357 24.3217 12.5357H26.4646C27.0329 12.5357 27.5779 12.7615 27.9798 13.1633C28.3817 13.5652 28.6074 14.1102 28.6074 14.6786V17.8928C28.6074 18.4612 28.3817 19.0062 27.9798 19.4081C27.5779 19.8099 27.0329 20.0357 26.4646 20.0357V20.0357Z" stroke="#EDC701" stroke-width="1.5" stroke-linecap="round" stroke-linejoin="round"/>
<path d="M20.0352 25.9286C21.1718 25.9286 22.2619 25.477 23.0656 24.6733C23.8693 23.8696 24.3209 22.7795 24.3209 21.6428V20.0357" stroke="#EDC701" stroke-width="1.5" stroke-linecap="round" stroke-linejoin="round"/>
<path d="M17.3577 23.25C18.0681 23.25 18.7494 23.5322 19.2517 24.0345C19.7541 24.5369 20.0363 25.2182 20.0363 25.9286C20.0363 26.639 19.7541 27.3203 19.2517 27.8226C18.7494 28.3249 18.0681 28.6071 17.3577 28.6071H14.1434C13.433 28.6071 12.7517 28.3249 12.2494 27.8226C11.747 27.3203 11.4648 26.639 11.4648 25.9286C11.4648 25.2182 11.747 24.5369 12.2494 24.0345C12.7517 23.5322 13.433 23.25 14.1434 23.25H17.3577Z" stroke="#EDC701" stroke-width="1.5" stroke-linecap="round" stroke-linejoin="round"/>
<path d="M5.03516 12.5357V10.3929C5.03516 7.83541 6.0511 5.38271 7.85948 3.57433C9.66787 1.76594 12.1206 0.75 14.678 0.75C17.2355 0.75 19.6882 1.76594 21.4965 3.57433C23.3049 5.38271 24.3209 7.83541 24.3209 10.3929V12.5357" stroke="#EDC701" stroke-width="1.5" stroke-linecap="round" stroke-linejoin="round"/>
<path d="M11.4648 8.25V11.4643" stroke="#EDC701" stroke-width="1.5" stroke-linecap="round" stroke-linejoin="round"/>
<path d="M17.8926 8.25V11.4643" stroke="#EDC701" stroke-width="1.5" stroke-linecap="round" stroke-linejoin="round"/>
<path d="M11.4648 15.75C11.4648 18.6 17.8934 18.6 17.8934 15.75" stroke="#EDC701" stroke-width="1.5" stroke-linecap="round" stroke-linejoin="round"/>
</svg>
