<svg width="24" height="24" viewBox="0 0 24 24" fill="none" xmlns="http://www.w3.org/2000/svg">
<path d="M19.7141 0.857178H4.28557C3.3388 0.857178 2.57129 1.62469 2.57129 2.57146V21.4286C2.57129 22.3754 3.3388 23.1429 4.28557 23.1429H19.7141C20.6609 23.1429 21.4284 22.3754 21.4284 21.4286V2.57146C21.4284 1.62469 20.6609 0.857178 19.7141 0.857178Z" stroke="#181818" stroke-width="1.5" stroke-linecap="round" stroke-linejoin="round"/>
<path d="M12.0003 15.4285C14.8406 15.4285 17.1431 13.126 17.1431 10.2857C17.1431 7.44536 14.8406 5.14282 12.0003 5.14282C9.15996 5.14282 6.85742 7.44536 6.85742 10.2857C6.85742 13.126 9.15996 15.4285 12.0003 15.4285Z" stroke="#181818" stroke-width="1.5" stroke-linecap="round" stroke-linejoin="round"/>
<path d="M6.85742 10.2856H17.1431" stroke="#181818" stroke-width="1.5" stroke-linecap="round" stroke-linejoin="round"/>
<path d="M12 15.4285V5.14282" stroke="#181818" stroke-width="1.5" stroke-linecap="round" stroke-linejoin="round"/>
</svg>
