<svg width="50" height="50" viewBox="0 0 50 50" fill="none" xmlns="http://www.w3.org/2000/svg">
<circle cx="25" cy="25" r="25" fill="#EDC701"/>
<path d="M30.543 39.9984C30.2601 39.7821 29.9913 39.5475 29.738 39.2958C29.03 38.5918 28.4543 37.7644 28.0423 36.8568C27.6147 35.9154 27.3697 34.8986 27.3215 33.8666L27.316 20.392L27.3139 20.3505C27.2844 19.7212 27.1353 19.1002 26.875 18.5271C26.6232 17.9727 26.2718 17.4674 25.839 17.0373C25.3793 16.5801 24.8345 16.2149 24.2352 15.9635C23.6157 15.7034 22.946 15.5695 22.2737 15.5701C21.6001 15.5699 20.9286 15.7037 20.3086 15.9651C19.7094 16.217 19.1649 16.5826 18.705 17.0396C18.2452 17.497 17.8775 18.0385 17.6241 18.6341C17.3614 19.2507 17.2265 19.918 17.2269 20.5872V21.9792V30.5436L17.2267 30.5438H20.7747V21.9792V20.5864C20.7754 20.3857 20.8133 20.1942 20.8905 20.0105C20.966 19.8324 21.0767 19.6697 21.2136 19.5338C21.3504 19.3976 21.5138 19.2877 21.6925 19.2129C21.878 19.1356 22.071 19.0981 22.2717 19.0972C22.4752 19.0981 22.669 19.1354 22.854 19.2126C23.0321 19.2871 23.1948 19.3961 23.3307 19.5311C23.4597 19.66 23.5663 19.8125 23.6414 19.9775C23.7627 20.248 23.7322 20.1184 23.7641 20.4335L23.7683 20.4738C23.7686 24.8998 23.7694 29.3259 23.7694 33.7518H14.0001L14 20.5877C13.9994 19.4883 14.2211 18.3952 14.6526 17.3827C15.0674 16.4076 15.6699 15.52 16.4232 14.7709C17.1766 14.0219 18.0694 13.423 19.0509 13.0102C20.0685 12.5813 21.1679 12.3611 22.2734 12.3613C23.3765 12.3608 24.474 12.5806 25.4907 13.0077C26.4729 13.4199 27.3668 14.0186 28.1209 14.7683C28.829 15.4722 29.4046 16.2996 29.8165 17.2072C30.2441 18.1487 30.4892 19.1654 30.5374 20.1975L30.543 20.3122V20.3503C30.543 24.2495 30.543 36.0994 30.543 39.9984Z" fill="#181818"/>
<path d="M20.7747 23.7899V21.979V20.5863C20.7754 20.3856 20.8133 20.1941 20.8905 20.0103C20.966 19.8322 21.0767 19.6695 21.2136 19.5337C21.3504 19.3974 21.5138 19.2876 21.6925 19.2128C21.878 19.1355 22.071 19.098 22.2717 19.0971C22.4752 19.098 22.669 19.1353 22.854 19.2124C23.0321 19.2869 23.1948 19.396 23.3307 19.531C23.4597 19.6599 23.5663 19.8124 23.6414 19.9773C23.7627 20.2479 23.7322 20.1183 23.7641 20.4333L23.7683 20.4736C23.7686 24.8997 23.7694 29.3258 23.7694 33.7517H23.7692L23.7683 23.6867L23.7641 23.6464C23.7322 23.3313 23.7627 23.4609 23.6414 23.1904C23.5663 23.0254 23.4597 22.8729 23.3307 22.744C23.1949 22.609 23.0321 22.5 22.854 22.4255C22.6691 22.3483 22.4753 22.311 22.2717 22.3101C22.0711 22.311 21.878 22.3485 21.6925 22.4258C21.5138 22.5005 21.3504 22.6105 21.2136 22.7466C21.0767 22.8825 20.966 23.0452 20.8905 23.2233C20.8145 23.4044 20.7766 23.5927 20.7747 23.7899ZM22.6154 15.5812C22.5019 15.5736 22.3877 15.5698 22.2737 15.57C22.1594 15.57 22.0453 15.5738 21.9314 15.5814C20.9419 15.6219 19.9634 15.8385 19.0509 16.2232C18.0694 16.6361 17.1766 17.235 16.4232 17.9839C15.6699 18.733 15.0674 19.6207 14.6526 20.5958C14.2278 21.5924 14.0065 22.6671 14.0002 23.7492L14.0001 20.5877C13.9995 19.4883 14.2212 18.3952 14.6527 17.3827C15.0674 16.4076 15.6699 15.52 16.4232 14.7709C17.1767 14.0219 18.0695 13.423 19.0509 13.0102C20.0686 12.5813 21.168 12.3611 22.2734 12.3613C23.3766 12.3608 24.474 12.5806 25.4908 13.0077C26.4729 13.4199 27.3669 14.0186 28.121 14.7683C28.8291 15.4722 29.4046 16.2996 29.8166 17.2072C30.2442 18.1487 30.4893 19.1654 30.5374 20.1975L30.5431 20.3122V20.3503V23.5251L30.5374 23.4104C30.4893 22.3783 30.2442 21.3617 29.8166 20.4202C29.4046 19.5125 28.8291 18.6851 28.121 17.9812C27.3669 17.2316 26.4729 16.6328 25.4908 16.2207C24.5792 15.8378 23.6027 15.6215 22.6154 15.5812ZM17.2268 30.5436H20.7747V33.7518H17.2268V30.5436Z" fill="#181818"/>
<path d="M36.9999 39.9991C36.717 39.7828 36.4481 39.5482 36.1949 39.2965C35.4869 38.5926 34.9111 37.7651 34.4992 36.8575C34.1531 36.0953 33.9265 35.2837 33.8272 34.4546V20.3512V20.2332L33.8178 20.0408C33.7507 18.6013 33.4081 17.1814 32.8099 15.8643C32.2351 14.5979 31.4314 13.4424 30.4429 12.4597C29.4814 11.5036 28.356 10.723 27.123 10.1562C27.6513 10.0524 28.19 10 28.7303 10C29.8334 9.9995 30.9309 10.2193 31.9476 10.6464C32.9298 11.0586 33.8238 11.6573 34.5778 12.4069C35.286 13.1108 35.8615 13.9383 36.2734 14.8459C36.7011 15.7874 36.9461 16.804 36.9943 17.8361L37 17.9508V17.989C36.9999 21.8882 36.9999 36.1001 36.9999 39.9991Z" fill="#181818"/>
</svg>
