<svg width="152" height="50" viewBox="0 0 152 50" fill="none" xmlns="http://www.w3.org/2000/svg">
<circle cx="25" cy="25" r="25" fill="#EDC701"/>
<path d="M30.543 39.9984C30.2601 39.7821 29.9913 39.5475 29.738 39.2958C29.03 38.5918 28.4543 37.7644 28.0423 36.8568C27.6147 35.9154 27.3697 34.8986 27.3215 33.8666L27.316 20.392L27.3139 20.3505C27.2844 19.7212 27.1353 19.1002 26.875 18.5271C26.6232 17.9727 26.2718 17.4674 25.839 17.0373C25.3793 16.5801 24.8345 16.2149 24.2352 15.9635C23.6157 15.7034 22.946 15.5695 22.2737 15.5701C21.6001 15.5699 20.9286 15.7037 20.3086 15.9651C19.7094 16.217 19.1649 16.5826 18.705 17.0396C18.2452 17.497 17.8775 18.0385 17.6241 18.6341C17.3614 19.2507 17.2265 19.918 17.2269 20.5872V21.9792V30.5436L17.2267 30.5438H20.7747V21.9792V20.5864C20.7754 20.3857 20.8133 20.1942 20.8905 20.0105C20.966 19.8324 21.0767 19.6697 21.2136 19.5338C21.3504 19.3976 21.5138 19.2877 21.6925 19.2129C21.878 19.1356 22.071 19.0981 22.2717 19.0972C22.4752 19.0981 22.669 19.1354 22.854 19.2126C23.0321 19.2871 23.1948 19.3961 23.3307 19.5311C23.4597 19.66 23.5663 19.8125 23.6414 19.9775C23.7627 20.248 23.7322 20.1184 23.7641 20.4335L23.7683 20.4738C23.7686 24.8998 23.7694 29.3259 23.7694 33.7518H14.0001L14 20.5877C13.9994 19.4883 14.2211 18.3952 14.6526 17.3827C15.0674 16.4076 15.6699 15.52 16.4232 14.7709C17.1766 14.0219 18.0694 13.423 19.0509 13.0102C20.0685 12.5813 21.1679 12.3611 22.2734 12.3613C23.3765 12.3608 24.474 12.5806 25.4907 13.0077C26.4729 13.4199 27.3668 14.0186 28.1209 14.7683C28.829 15.4722 29.4046 16.2996 29.8165 17.2072C30.2441 18.1487 30.4892 19.1654 30.5374 20.1975L30.543 20.3122V20.3503C30.543 24.2495 30.543 36.0994 30.543 39.9984Z" fill="#181818"/>
<path d="M20.7746 23.7899V21.979V20.5863C20.7753 20.3856 20.8132 20.1941 20.8905 20.0103C20.9659 19.8322 21.0766 19.6695 21.2135 19.5337C21.3503 19.3974 21.5138 19.2876 21.6924 19.2128C21.8779 19.1355 22.071 19.098 22.2717 19.0971C22.4752 19.098 22.669 19.1353 22.8539 19.2124C23.032 19.2869 23.1948 19.396 23.3306 19.531C23.4597 19.6599 23.5662 19.8124 23.6413 19.9773C23.7627 20.2479 23.7321 20.1183 23.764 20.4333L23.7682 20.4736C23.7686 24.8997 23.7693 29.3258 23.7693 33.7517H23.7691L23.7682 23.6867L23.764 23.6464C23.7321 23.3313 23.7627 23.4609 23.6413 23.1904C23.5662 23.0254 23.4597 22.8729 23.3306 22.744C23.1948 22.609 23.032 22.5 22.8539 22.4255C22.669 22.3483 22.4752 22.311 22.2717 22.3101C22.071 22.311 21.8779 22.3485 21.6924 22.4258C21.5138 22.5005 21.3503 22.6105 21.2135 22.7466C21.0766 22.8825 20.9659 23.0452 20.8905 23.2233C20.8145 23.4044 20.7766 23.5927 20.7746 23.7899ZM22.6153 15.5812C22.5018 15.5736 22.3877 15.5698 22.2736 15.57C22.1593 15.57 22.0453 15.5738 21.9314 15.5814C20.9418 15.6219 19.9633 15.8385 19.0508 16.2232C18.0694 16.6361 17.1766 17.235 16.4231 17.9839C15.6698 18.733 15.0673 19.6207 14.6525 20.5958C14.2277 21.5924 14.0065 22.6671 14.0001 23.7492L14 20.5877C13.9994 19.4883 14.2211 18.3952 14.6526 17.3827C15.0674 16.4076 15.6699 15.52 16.4232 14.7709C17.1766 14.0219 18.0694 13.423 19.0509 13.0102C20.0685 12.5813 21.1679 12.3611 22.2734 12.3613C23.3765 12.3608 24.474 12.5806 25.4907 13.0077C26.4729 13.4199 27.3669 14.0186 28.1209 14.7683C28.829 15.4722 29.4046 16.2996 29.8165 17.2072C30.2441 18.1487 30.4892 19.1654 30.5374 20.1975L30.543 20.3122V20.3503V23.5251L30.5374 23.4104C30.4892 22.3783 30.2441 21.3617 29.8165 20.4202C29.4046 19.5125 28.829 18.6851 28.1209 17.9812C27.3669 17.2316 26.4729 16.6328 25.4907 16.2207C24.5791 15.8378 23.6026 15.6215 22.6153 15.5812ZM17.2268 30.5436H20.7746V33.7518H17.2268V30.5436Z" fill="#181818"/>
<path d="M36.9999 39.9991C36.717 39.7828 36.4482 39.5482 36.1949 39.2965C35.4869 38.5926 34.9112 37.7651 34.4993 36.8575C34.1531 36.0953 33.9266 35.2837 33.8273 34.4546V20.3512V20.2332L33.8178 20.0408C33.7508 18.6013 33.4082 17.1814 32.8099 15.8643C32.2352 14.5979 31.4315 13.4424 30.443 12.4597C29.4814 11.5036 28.3561 10.723 27.123 10.1562C27.6513 10.0524 28.19 10 28.7303 10C29.8334 9.9995 30.9309 10.2193 31.9477 10.6464C32.9299 11.0586 33.8239 11.6573 34.5779 12.4069C35.286 13.1108 35.8616 13.9383 36.2735 14.8459C36.7011 15.7874 36.9462 16.804 36.9944 17.8361L37 17.9508V17.989C36.9999 21.8882 36.9999 36.1001 36.9999 39.9991Z" fill="#181818"/>
<path d="M65.272 17.2H68.344V34H65.272V17.2ZM68.056 24.688H75.76V27.376H68.056V24.688ZM66.592 17.2H76.72V19.864H66.592V17.2ZM78.1827 20.56H81.2067V34H78.1827V20.56ZM81.2067 27.184L80.8467 24.952C80.8467 24.536 80.8867 24.056 80.9667 23.512C81.0627 22.968 81.2627 22.448 81.5667 21.952C81.8867 21.44 82.3667 21.016 83.0067 20.68C83.6467 20.344 84.5027 20.176 85.5747 20.176V23.152C84.6307 23.152 83.8307 23.272 83.1747 23.512C82.5187 23.736 82.0227 24.136 81.6867 24.712C81.3667 25.288 81.2067 26.112 81.2067 27.184ZM95.1614 26.32H98.1614V34H95.1614V26.32ZM92.4734 20.176C94.3454 20.176 95.7614 20.728 96.7214 21.832C97.6814 22.936 98.1614 24.432 98.1614 26.32H95.1614C95.1614 25.648 95.0814 25.056 94.9214 24.544C94.7774 24.016 94.5054 23.6 94.1054 23.296C93.7214 22.992 93.1774 22.84 92.4734 22.84C91.5454 22.84 90.8414 23.08 90.3614 23.56C89.8814 24.04 89.6414 24.616 89.6414 25.288H86.4734C86.4734 24.392 86.7054 23.56 87.1694 22.792C87.6494 22.008 88.3374 21.376 89.2334 20.896C90.1294 20.416 91.2094 20.176 92.4734 20.176ZM95.4254 25.6L95.9294 27.688C93.8814 27.544 92.3854 27.712 91.4414 28.192C90.4974 28.656 90.0254 29.264 90.0254 30.016C90.0254 30.576 90.2174 30.992 90.6014 31.264C90.9854 31.536 91.4814 31.672 92.0894 31.672C92.6174 31.672 93.1134 31.576 93.5774 31.384C94.0414 31.192 94.4174 30.88 94.7054 30.448C95.0094 30 95.1614 29.416 95.1614 28.696L95.8094 29.8C95.7614 30.696 95.5614 31.488 95.2094 32.176C94.8734 32.864 94.3934 33.408 93.7694 33.808C93.1454 34.192 92.3774 34.384 91.4654 34.384C90.5854 34.384 89.8014 34.224 89.1134 33.904C88.4254 33.568 87.8814 33.088 87.4814 32.464C87.0814 31.84 86.8814 31.08 86.8814 30.184C86.8814 29.32 87.0494 28.608 87.3854 28.048C87.7374 27.488 88.2094 27.04 88.8014 26.704C89.3934 26.368 90.0574 26.12 90.7934 25.96C91.5294 25.8 92.2974 25.704 93.0974 25.672C93.8974 25.624 94.6734 25.6 95.4254 25.6ZM100.401 20.56H103.425V34H100.401V20.56ZM103.425 27.352L103.041 24.664C103.041 24.248 103.105 23.784 103.233 23.272C103.377 22.76 103.609 22.272 103.929 21.808C104.249 21.328 104.681 20.936 105.225 20.632C105.785 20.328 106.489 20.176 107.337 20.176C108.153 20.176 108.873 20.352 109.497 20.704C110.121 21.056 110.601 21.64 110.937 22.456C111.289 23.256 111.465 24.344 111.465 25.72V34H108.465V26.032C108.465 25.408 108.425 24.848 108.345 24.352C108.265 23.856 108.089 23.472 107.817 23.2C107.545 22.928 107.113 22.792 106.521 22.792C106.041 22.792 105.561 22.952 105.081 23.272C104.617 23.592 104.225 24.088 103.905 24.76C103.585 25.416 103.425 26.28 103.425 27.352ZM111.465 27.352L110.697 24.664C110.697 24.248 110.777 23.784 110.937 23.272C111.113 22.76 111.385 22.272 111.753 21.808C112.137 21.328 112.625 20.936 113.217 20.632C113.809 20.328 114.537 20.176 115.401 20.176C116.217 20.176 116.929 20.352 117.537 20.704C118.161 21.056 118.649 21.64 119.001 22.456C119.353 23.256 119.529 24.344 119.529 25.72V34H116.505V26.032C116.505 25.408 116.465 24.848 116.385 24.352C116.305 23.856 116.129 23.472 115.857 23.2C115.601 22.928 115.177 22.792 114.585 22.792C114.105 22.792 113.625 22.952 113.145 23.272C112.665 23.592 112.265 24.088 111.945 24.76C111.625 25.416 111.465 26.28 111.465 27.352ZM128.09 34.384C126.714 34.384 125.506 34.088 124.466 33.496C123.442 32.888 122.642 32.048 122.066 30.976C121.506 29.904 121.226 28.68 121.226 27.304C121.226 25.912 121.506 24.68 122.066 23.608C122.642 22.536 123.442 21.696 124.466 21.088C125.506 20.48 126.714 20.176 128.09 20.176C129.002 20.176 129.858 20.36 130.658 20.728C131.474 21.08 132.178 21.608 132.77 22.312C133.362 23 133.794 23.848 134.066 24.856C134.338 25.864 134.394 27.008 134.234 28.288H122.954V25.816H132.338L131.258 26.512C131.306 25.904 131.218 25.32 130.994 24.76C130.786 24.2 130.442 23.752 129.962 23.416C129.482 23.064 128.858 22.888 128.09 22.888C127.226 22.888 126.514 23.08 125.954 23.464C125.394 23.848 124.978 24.376 124.706 25.048C124.45 25.72 124.322 26.472 124.322 27.304C124.322 28.12 124.45 28.864 124.706 29.536C124.978 30.192 125.394 30.712 125.954 31.096C126.514 31.48 127.226 31.672 128.09 31.672C128.89 31.672 129.538 31.488 130.034 31.12C130.53 30.736 130.874 30.272 131.066 29.728H134.258C134.05 30.656 133.666 31.472 133.106 32.176C132.562 32.864 131.858 33.408 130.994 33.808C130.146 34.192 129.178 34.384 128.09 34.384ZM134.654 20.56H138.158L146.726 34H143.222L134.654 20.56ZM146.654 20.56L138.086 34H134.582L143.15 20.56H146.654Z" fill="#181818"/>
<path d="M147.807 30.688H151.095V34H147.807V30.688Z" fill="#EDC701"/>
</svg>
