<svg width="605" height="580" viewBox="0 0 605 580" fill="none" xmlns="http://www.w3.org/2000/svg">
<path d="M179.14 105.623C185.553 103.708 192 108.512 192 115.205V570C192 575.523 187.523 580 182 580H10C4.47721 580 9.49131e-05 575.523 0 570V166.549C0.000122605 162.128 2.90333 158.231 7.13965 156.967L179.14 105.623ZM413 115.205C413 108.512 419.447 103.708 425.86 105.623L597.86 156.967C602.097 158.231 605 162.128 605 166.549V570C605 575.523 600.523 580 595 580H423C417.477 580 413 575.523 413 570V115.205ZM206 10.0085C206 3.07211 212.89 -1.75732 219.41 0.608154L392.41 63.3748C396.366 64.8098 399 68.5675 399 72.7751V569.998C399 575.521 394.523 579.998 389 579.998H216C210.477 579.998 206 575.521 206 569.998V10.0085Z" fill="#D9D9D9"/>
</svg>
